<svg width="35" height="13" viewBox="0 0 35 13" fill="none" xmlns="http://www.w3.org/2000/svg">
<path d="M25.3215 1.71005L24.6629 3.23902H25.9836L25.3215 1.71005ZM17.7222 2.65753C17.8464 2.59548 17.9195 2.46051 17.9195 2.2929C17.9195 2.12865 17.8427 2.0097 17.7186 1.9538C17.6055 1.89184 17.4316 1.88468 17.2648 1.88468H16.0866V2.7366H17.249C17.4351 2.73664 17.5907 2.73402 17.7222 2.65753ZM2.62535 1.71005L1.97425 3.23902H3.28038L2.62535 1.71005ZM32.9395 11.5051H31.0918V10.6825H32.9321C33.1145 10.6825 33.2423 10.6596 33.3192 10.5874C33.3919 10.5232 33.4331 10.4323 33.4323 10.3373C33.4323 10.2255 33.386 10.1368 33.3154 10.0837C33.2461 10.0251 33.1449 9.99843 32.9782 9.99843C32.0798 9.96919 30.959 10.025 30.959 8.81104C30.959 8.25468 31.3278 7.66899 32.3319 7.66899H34.2378V6.9057H32.467C31.9327 6.9057 31.5444 7.02832 31.2695 7.21905V6.9057H28.6504C28.2316 6.9057 27.74 7.00515 27.5075 7.21905V6.9057H22.8301V7.21905C22.4579 6.96173 21.8298 6.9057 21.54 6.9057H18.4548V7.21905C18.1604 6.9458 17.5054 6.9057 17.1064 6.9057H13.6536L12.8636 7.72497L12.1235 6.9057H6.96573V12.259H12.0262L12.8403 11.4266L13.6072 12.259L16.7265 12.2616V11.0023H17.0332C17.4471 11.0087 17.9352 10.9926 18.366 10.8142V12.2588H20.9389V10.8635H21.063C21.2213 10.8635 21.237 10.8699 21.237 11.0215V12.2585H29.0531C29.5494 12.2585 30.0681 12.137 30.3553 11.9159V12.2585H32.8346C33.3505 12.2585 33.8543 12.1892 34.2377 12.0119V11.0146C34.0053 11.3402 33.5523 11.5053 32.9394 11.5053L32.9395 11.5051ZM17.0742 10.2411H15.8803V11.5278H14.0206L12.8425 10.2579L11.6181 11.5278H7.82811V7.69159H11.6764L12.8535 8.94911L14.0706 7.69159H17.1279C17.8872 7.69159 18.7403 7.89306 18.7403 8.95543C18.7403 10.0211 17.9106 10.2411 17.0742 10.2411ZM22.815 10.0672C22.9502 10.2544 22.9697 10.4292 22.9736 10.7674V11.5279H22.0129V11.048C22.0129 10.8172 22.0362 10.4754 21.8582 10.297C21.7186 10.1597 21.5054 10.1269 21.1562 10.1269H20.1337V11.5279H19.1724V7.69164H21.3813C21.8658 7.69164 22.2186 7.71228 22.5326 7.87264C22.8345 8.04745 23.0246 8.28692 23.0246 8.72455C23.0245 9.33681 22.5983 9.64916 22.3464 9.74516C22.5593 9.82044 22.7333 9.9554 22.815 10.0672ZM26.7674 8.48499H24.5268V9.18239H26.7126V9.96513H24.5268V10.7284L26.7674 10.7318V11.5278H23.574V7.69159H26.7674V8.48499ZM29.226 11.5278H27.3625V10.7052H29.2186C29.4001 10.7052 29.5288 10.6822 29.6095 10.6101C29.6752 10.5508 29.7225 10.4646 29.7225 10.3601C29.7225 10.2482 29.6713 10.1594 29.6058 10.1062C29.5325 10.0477 29.4315 10.0213 29.265 10.0213C28.3702 9.99184 27.2496 10.0477 27.2496 8.83377C27.2496 8.27732 27.6145 7.69164 28.6176 7.69164H30.5359V8.50803H28.7806C28.6066 8.50803 28.4935 8.5144 28.3973 8.5775C28.2924 8.63964 28.2535 8.73175 28.2535 8.85337C28.2535 8.99807 28.3426 9.0966 28.4629 9.13914C28.5638 9.17278 28.6722 9.1826 28.8352 9.1826L29.3504 9.19609C29.8696 9.208 30.2263 9.29427 30.443 9.50451C30.6292 9.68918 30.7292 9.92246 30.7292 10.3172C30.7291 11.1425 30.191 11.5278 29.226 11.5278ZM21.8052 8.54686C21.6896 8.48106 21.519 8.47757 21.3488 8.47757H20.1705V9.33913H21.333C21.5191 9.33913 21.6774 9.3328 21.8052 9.26006C21.9292 9.18823 22.0035 9.05593 22.0035 8.89185C22.0035 8.72778 21.9292 8.609 21.8052 8.54686ZM32.4957 8.47748C32.3217 8.47748 32.2059 8.48381 32.1085 8.54678C32.0075 8.609 31.9688 8.70112 31.9688 8.82282C31.9688 8.96743 32.054 9.06596 32.178 9.1086C32.279 9.14224 32.3873 9.15206 32.5466 9.15206L33.0653 9.16528C33.5885 9.17772 33.938 9.26399 34.151 9.47423C34.1898 9.50338 34.2131 9.53619 34.2397 9.56909V8.47757H32.4958L32.4957 8.47748ZM17.1073 8.47748H15.8598V9.45455H17.0963C17.4639 9.45455 17.6925 9.27974 17.6926 8.94788C17.6925 8.61241 17.4528 8.47748 17.1073 8.47748ZM8.78109 8.47748V9.17497H10.8816V9.95772H8.78109V10.7209H11.1335L12.2264 9.59549L11.1799 8.47748H8.78109ZM14.9238 11.1602V8.08463L13.4548 9.59767L14.9238 11.1602ZM8.86138 5.00093V5.66193H16.8551L16.8514 4.26356H17.0061C17.1145 4.26719 17.146 4.27674 17.146 4.4481V5.66198H21.2804V5.33641C21.6139 5.50764 22.1325 5.66198 22.815 5.66198H24.5544L24.9266 4.81011H25.7519L26.1159 5.66198H29.4677V4.85278L29.9751 5.66193H32.6612V0.312988H30.0031V0.944712L29.6308 0.312988H26.9033V0.944712L26.5615 0.312988H22.8771C22.2603 0.312988 21.7183 0.395461 21.2804 0.625337V0.312988H18.7378V0.625337C18.4591 0.388392 18.0793 0.312988 17.6572 0.312988H8.36838L7.74516 1.6946L7.1051 0.312988H4.17942V0.944712L3.85795 0.312988H1.36282L0.204145 2.85629V4.89066L1.91748 1.05529H3.33911L4.96631 4.68657V1.05529H6.52801L7.78016 3.6571L8.9305 1.05529H10.5235V4.89066H9.5428L9.53923 1.88686L8.15176 4.89066H7.31168L5.92068 1.8842V4.89066H3.9745L3.60686 4.03517H1.61469L1.24326 4.89066H0.204102V5.66224H1.83898L2.20758 4.81033H3.03292L3.40055 5.66224H6.61712V5.01088L6.9042 5.66494H8.57399L8.86112 5.00106L8.86138 5.00093ZM21.4579 1.50234C21.767 1.19623 22.2515 1.05507 22.9109 1.05507H23.8372V1.87687H22.9303C22.5813 1.87687 22.3839 1.92662 22.1941 2.10413C22.0309 2.26558 21.919 2.57086 21.919 2.97284C21.919 3.38377 22.0043 3.68001 22.1821 3.87354C22.3294 4.02531 22.5972 4.07135 22.849 4.07135H23.2788L24.6273 1.0552H26.0609L27.6808 4.68286V1.05524H29.1377L30.8195 3.72636V1.05524H31.7996V4.89049H30.4437L28.6301 2.01188V4.89049H26.6815L26.3092 4.035H24.3216L23.9603 4.89049H22.8406C22.3756 4.89049 21.7868 4.79196 21.4533 4.46625C21.117 4.14064 20.9422 3.69952 20.9422 3.00212C20.942 2.43324 21.0464 1.91326 21.4579 1.50234ZM19.4898 1.05511H20.4661V4.89049H19.4898V1.05511ZM15.0882 1.05511H17.2889C17.7778 1.05511 18.1383 1.06755 18.4476 1.23882C18.7503 1.41014 18.9317 1.66026 18.9317 2.08798C18.9317 2.69955 18.5057 3.01543 18.2576 3.11034C18.4669 3.1867 18.6458 3.32158 18.7311 3.43329C18.8661 3.62407 18.8894 3.79447 18.8894 4.13697V4.89044H17.9244L17.9208 4.40678C17.9208 4.17594 17.9438 3.84404 17.7697 3.65964C17.63 3.5248 17.4168 3.49543 17.0723 3.49543H16.0452V4.89049H15.0884L15.0882 1.05511ZM11.2311 1.05511H14.4274V1.85379H12.188V2.54512H14.3737V3.33132H12.188V4.09727H14.4274V4.89044H11.2311V1.05511Z" fill="white"/>
</svg>
