<svg width="45" height="25" viewBox="0 0 45 25" fill="none" xmlns="http://www.w3.org/2000/svg">
<path fill-rule="evenodd" clip-rule="evenodd" d="M37.3183 8.16667C33.3114 4.86053 28.1817 2.875 22.5903 2.875C16.9989 2.875 11.8692 4.86053 7.8623 8.16667H9.18059C12.919 5.35706 17.5608 3.69271 22.5903 3.69271C27.6198 3.69271 32.2616 5.35706 36 8.16667" fill="white"/>
<path fill-rule="evenodd" clip-rule="evenodd" d="M12.8305 17.8319L9.19332 10.3013H7.15571L3.51855 17.8319H5.577L6.21705 16.413H10.0787L10.7188 17.8319H12.8305ZM9.47052 15.0796H6.82527L8.1505 12.1271" fill="white"/>
<path fill-rule="evenodd" clip-rule="evenodd" d="M31.2928 12.5518C31.2928 12.1143 31.1857 11.549 30.8015 11.101C30.1724 10.3753 29.3941 10.3013 28.5405 10.3013H23.3564V17.8319H25.2448V14.8024H27.3883L29.4045 17.8319H31.6232L29.3402 14.685C29.6389 14.6317 30.162 14.5247 30.5671 14.2156C31.1007 13.8105 31.2928 13.1277 31.2928 12.5518ZM29.3831 12.5733C29.3831 13.4159 28.6579 13.4691 28.2523 13.4691H25.2448V11.6236H28.1672C28.9137 11.6236 29.0954 11.8047 29.2338 11.9865C29.3617 12.1676 29.3831 12.4234 29.3831 12.5733Z" fill="white"/>
<path fill-rule="evenodd" clip-rule="evenodd" d="M41.6639 17.8319L38.0267 10.3013H35.9891L32.3525 17.8319H34.411L35.0505 16.413H38.9121L39.5522 17.8319H41.6639ZM38.3039 15.0796H35.6587L36.9845 12.1271" fill="white"/>
<path fill-rule="evenodd" clip-rule="evenodd" d="M13.4185 14.5871C13.4185 15.4829 13.4295 16.4748 14.6135 17.2752C15.0828 17.5842 15.5521 17.7335 15.9144 17.8192C16.4376 17.9471 16.9705 18.0003 17.5041 18.0003C18.6453 18.0003 20.0961 17.7121 20.8745 16.8481C21.5145 16.1444 21.5145 15.3869 21.5255 14.5871V10.2983H19.6482V14.6508C19.6696 15.4083 19.5093 15.6537 19.3282 15.8672C19.0296 16.2086 18.5707 16.4002 17.856 16.4644C17.3016 16.4858 16.7576 16.5073 16.1494 16.2191C15.4347 15.8776 15.2958 15.3122 15.2958 14.6404V10.2983H13.4185" fill="white"/>
</svg>
