<svg width="45" height="25" viewBox="0 0 45 25" fill="none" xmlns="http://www.w3.org/2000/svg">
<path d="M10.7415 16.5269L9.20505 17.0663L8.09444 13.9071L10.7415 12.9758L11.3466 12.7637C11.4557 12.7256 11.5657 12.7079 11.6748 12.7079C12.082 12.7079 12.4608 12.9606 12.6037 13.3661L13.3905 15.5945L10.7415 16.5269ZM10.7415 12.8126L8.04203 13.7644L7.89746 13.815L7.94801 13.9604L9.06135 17.1186L9.1119 17.2642L9.2556 17.2126L10.7415 16.691L13.4402 15.74L13.5856 15.6894L13.5342 15.5431L12.75 13.3146C12.5894 12.8586 12.1583 12.5526 11.6748 12.5526C11.5454 12.5526 11.4184 12.5765 11.2951 12.6191L10.7415 12.8126Z" fill="white"/>
<path d="M12.1555 20.2324H12.1546C11.0138 20.2324 9.99351 19.5093 9.61383 18.4334L9.32991 17.6242L9.3042 17.5514L9.37698 17.5257L13.8011 15.9671C13.9173 15.9281 14.0397 15.9059 14.1631 15.9059C14.6261 15.9059 15.0395 16.2004 15.1957 16.6351L16.0091 18.9549L16.0358 19.0277L15.963 19.0534L13.0515 20.0798C12.7613 20.1809 12.4606 20.2324 12.1555 20.2324Z" fill="white"/>
<path d="M18.5855 20.2617C17.0907 20.251 16.3058 19.4833 16.3162 18.0374C16.3225 17.1627 16.5961 16.3653 17.0863 15.7949C17.615 15.1794 18.3554 14.8592 19.2292 14.8654C19.8874 14.8701 20.4407 15.0285 20.8343 15.3231C21.2816 15.6618 21.5141 16.1584 21.5227 16.8043L21.5224 16.845L21.4807 16.8447L20.0943 16.8348L20.0543 16.8345L20.0546 16.7938C20.0585 16.2437 19.7862 15.9952 19.1741 15.9908C18.0857 15.983 17.7902 17.3525 17.785 18.0772C17.7815 18.5571 17.9353 19.1295 18.692 19.1349C19.3857 19.1399 19.6728 18.5742 19.7808 18.2361L19.7907 18.2059L19.8209 18.2062L21.2066 18.2161L21.2652 18.2165L21.2462 18.2714C20.7984 19.582 19.878 20.271 18.5855 20.2617ZM23.7896 19.2558C24.3698 19.1322 24.5915 18.653 24.7288 18.1829L24.8416 17.7907C24.5362 17.9367 24.1909 17.9591 23.8555 17.978L23.7988 17.9811L23.7401 17.9859C23.1478 18.0463 22.7521 18.2015 22.7482 18.756C22.7454 19.1445 23.1311 19.2839 23.4639 19.2863C23.5817 19.2871 23.6891 19.2772 23.7896 19.2558ZM23.805 17.1136L23.8599 17.1067C24.7424 17.0261 25.1463 16.9883 25.1499 16.4896C25.1537 15.9575 24.5135 15.9111 24.3167 15.9097C24.1241 15.9083 23.9545 15.9426 23.813 16.0011C23.5512 16.1162 23.3794 16.3252 23.3278 16.6115L21.9897 16.6355C22.0361 15.9865 22.325 15.5388 22.8105 15.2539C23.0912 15.0909 23.4282 14.9834 23.8206 14.933C23.9999 14.9095 24.1899 14.901 24.3921 14.9025C25.2614 14.9087 25.8741 15.0896 26.2157 15.4407C26.4183 15.6488 26.5219 15.9211 26.5232 16.2431C26.5216 16.471 26.4813 16.7583 26.4076 17.141L25.9442 19.1701C25.8976 19.3365 25.8743 19.6353 25.8728 19.842C25.8722 19.9273 25.8891 20.0391 25.917 20.1226L25.9352 20.1771L25.8766 20.1766L24.4919 20.1667L24.4533 19.7325C24.2692 19.9114 24.0393 20.0515 23.7832 20.1491C23.5253 20.2448 23.2401 20.2951 22.9481 20.293C21.7888 20.2847 21.2731 19.5944 21.2779 18.913C21.2849 17.947 22.0071 17.3099 23.259 17.168L23.805 17.1136ZM27.9888 20.1918L27.9559 20.1916L26.5694 20.1816L26.5188 20.1812L26.5307 20.1334L27.6207 15.0933L27.6273 15.0614L27.6601 15.0617L28.9792 15.0711L29.0306 15.0715L29.0197 15.122L28.855 15.8207C29.1977 15.2704 29.8211 14.9414 30.5318 14.9465C30.6781 14.9476 30.8155 14.9565 30.9653 14.9779L31.0104 14.9827L31.0013 15.028L30.7087 16.3717L30.6996 16.4132L30.6579 16.405C30.6261 16.3968 30.5906 16.3894 30.5569 16.3811C30.401 16.3482 30.2398 16.3133 30.0811 16.3121C28.9864 16.3043 28.65 17.173 28.4814 17.9277L27.9961 20.1589L27.9888 20.1918ZM32.9364 19.2061C33.7628 19.015 34.1592 17.9161 34.1647 17.1488C34.1695 16.4817 33.8228 16.0959 33.2169 16.0916C33.1273 16.0909 33.0404 16.1 32.9585 16.1172C32.1225 16.2966 31.7368 17.3665 31.7312 18.148C31.7277 18.6456 31.971 19.2302 32.6682 19.2352C32.7623 19.2359 32.8511 19.2258 32.9364 19.2061ZM32.9668 14.9657L33.0803 14.9648C33.5754 14.9684 34.2233 15.1691 34.4881 15.7193L35.0419 13.2241L36.4694 13.2016L34.9846 20.2091L33.6085 20.2321L33.6754 19.7055C33.4926 19.9534 33.2357 20.1379 32.9289 20.244C32.7119 20.3213 32.4704 20.3613 32.2094 20.3594C30.9995 20.3508 30.2511 19.5665 30.2601 18.3121C30.2664 17.4294 30.518 16.6098 30.9632 16.0071C31.4497 15.3478 32.1425 14.9874 32.9668 14.9657ZM33.7784 12.1469C33.2008 12.1428 32.6686 12.0121 32.2817 11.7796C31.7985 11.4877 31.5462 11.0389 31.5503 10.4781L31.5518 10.2689L31.5521 10.2263L31.5938 10.2266L32.9129 10.236L32.9538 10.2363L32.9535 10.2789L32.9522 10.4483C32.9491 10.8804 33.4397 11.1092 33.9268 11.1127C34.1281 11.1142 34.7841 11.078 34.7879 10.5414C34.7902 10.2228 34.6349 10.1171 34.311 10.0101L33.2231 9.65102C32.4974 9.41069 32.0781 9.10959 32.0841 8.28194C32.0924 7.12243 33.2681 6.61008 34.4284 6.61841C35.2614 6.62438 35.8358 6.80252 36.1864 7.16336C36.4575 7.44203 36.588 7.83247 36.5772 8.3266L36.5769 8.36908L36.5343 8.36877L35.2161 8.35931L35.1735 8.35901L35.1729 8.31652C35.1654 7.88002 34.9132 7.65725 34.421 7.65372C34.0438 7.65101 33.5928 7.72851 33.59 8.11352C33.5888 8.28913 33.6906 8.43444 34.2066 8.59787L34.9163 8.83274C35.635 9.07562 36.2987 9.43002 36.292 10.3631C36.2877 10.9611 36.0066 11.4416 35.4784 11.752C35.0408 12.0105 34.4374 12.1516 33.7784 12.1469ZM25.1666 11.9459L25.1345 11.9457L23.7143 11.9355L23.662 11.9351L23.6731 11.8819L24.3237 8.85784C24.3675 8.70476 24.4168 8.3715 24.4178 8.23935C24.4198 7.95184 24.0868 7.74898 23.7844 7.74681C22.7774 7.73959 22.4572 8.72024 22.3655 9.14188L21.7684 11.8868L21.761 11.9214L21.7264 11.9212L20.307 11.911L20.2538 11.9106L20.2656 11.8574L21.3815 6.69781L21.3888 6.66507L21.4233 6.66532L22.7824 6.67507L22.8348 6.67545L22.8229 6.72778L22.6892 7.31144C23.1507 6.79832 23.7425 6.54173 24.452 6.54682C25.4537 6.55401 26.0008 7.0663 25.9942 7.98897C25.9932 8.13701 25.9395 8.43832 25.8361 8.88732L25.1756 11.9113L25.1666 11.9459ZM11.4287 8.66769L10.279 8.65944L9.86361 10.5319L11.4152 10.5431L11.7799 10.5457C12.5232 10.551 12.9697 10.14 12.9746 9.44711C12.9797 8.73831 12.3628 8.67439 11.7835 8.67024L11.4287 8.66769ZM11.4483 5.92665L10.8691 5.92249L10.5241 7.5071L11.437 7.51365L12.2513 7.51949C12.7588 7.52313 13.2707 7.24908 13.2752 6.62996C13.2785 6.15975 13.03 5.938 12.4933 5.93415L11.4483 5.92665ZM11.4059 11.8472L8.03315 11.823L9.54133 4.64261L11.4577 4.62431L12.5817 4.63238C13.3978 4.63823 13.9275 4.74587 14.2976 4.97569C14.7276 5.24756 14.9364 5.6988 14.9316 6.36065C14.9286 6.77845 14.7954 7.17495 14.5591 7.48103C14.3352 7.76956 14.0313 7.96077 13.6786 8.03276C14.2732 8.24991 14.6347 8.79627 14.6297 9.4873C14.6244 10.2245 14.3273 10.8417 13.7716 11.2653C13.273 11.6467 12.5866 11.8556 11.8405 11.8503L11.4059 11.8472ZM29.0689 8.74905L30.2026 8.75718C30.1991 8.27549 30.0813 7.74318 29.2918 7.73752C29.2173 7.73698 29.1472 7.73921 29.0761 7.74839C28.5539 7.81569 28.1711 8.14916 27.9352 8.74091L29.0689 8.74905ZM29.0844 6.58366L29.2202 6.58104C29.9556 6.58631 30.5681 6.7913 30.9885 7.17214C31.4355 7.57641 31.6609 8.15905 31.6556 8.89989C31.6537 9.17126 31.6224 9.45497 31.5691 9.71715L29.0618 9.73294L27.7578 9.72359L27.7489 9.98336C27.7445 10.5981 28.1411 10.9524 28.8393 10.9574C28.9147 10.9579 28.9884 10.9512 29.0532 10.9393C29.4557 10.8606 29.685 10.5606 29.8689 10.2727L31.3237 10.2664L31.3858 10.2668L31.3625 10.3224C30.9134 11.4566 30.2086 12.0024 29.0449 12.096C28.9127 12.1058 28.775 12.111 28.6314 12.11C27.1642 12.0994 26.2956 11.2336 26.306 9.79117C26.312 8.9475 26.592 8.15286 27.0955 7.55595C27.6039 6.95634 28.3063 6.61447 29.0844 6.58366ZM17.4738 8.76609L17.5298 8.76127C18.4353 8.67722 18.8481 8.64019 18.8517 8.12837C18.8556 7.58464 18.2004 7.53733 17.9981 7.53588C17.8029 7.53448 17.6288 7.56602 17.4811 7.63067C17.2141 7.74588 17.0387 7.96098 16.9861 8.25161L15.6144 8.27729C15.6625 7.61228 15.9596 7.15572 16.4566 6.86306C16.7417 6.6947 17.0876 6.5854 17.489 6.53425C17.6727 6.51247 17.8698 6.4996 18.0756 6.50107C18.9671 6.50747 19.5948 6.6948 19.9435 7.0539C20.1505 7.2674 20.2558 7.54227 20.258 7.87055C20.2571 8.11101 20.2178 8.39727 20.1404 8.79416L19.6668 10.8719C19.6168 11.0437 19.5934 11.3487 19.5918 11.5635C19.5912 11.6495 19.6099 11.764 19.6368 11.8485L19.6568 11.9064L19.5964 11.9059L18.178 11.8957L18.1377 11.4474C17.9501 11.6324 17.7157 11.7762 17.4507 11.8762C17.1874 11.9738 16.8951 12.0258 16.5971 12.0236C15.4082 12.0151 14.8802 11.3061 14.8852 10.6106C14.8923 9.62146 15.6324 8.97123 16.9145 8.82331L17.4738 8.76609ZM17.5052 10.9558C18.0996 10.8296 18.2805 10.3458 18.4215 9.86328L18.5388 9.45859C18.2227 9.60984 17.8704 9.63302 17.526 9.65278L17.4079 9.66075C16.8016 9.72298 16.3942 9.88152 16.3901 10.4501C16.3873 10.8475 16.7837 10.9897 17.1243 10.9922C17.2476 10.9931 17.4057 10.979 17.5052 10.9558Z" fill="white"/>
</svg>
