<svg width="33" height="19" viewBox="0 0 33 19" fill="none" xmlns="http://www.w3.org/2000/svg">
<path d="M0.222168 0.638672H2.4035V18.6787H0.222168V0.638672ZM27.4755 0.638672H28.5662V18.6787H27.4755V0.638672ZM25.0755 0.638672H25.6222V18.6787H25.0755V0.638672ZM13.8302 0.638672H15.3875V18.6787H13.8302V0.638672ZM10.8062 0.638672H11.9742V18.6787H10.8062V0.638672ZM4.25683 0.638672H4.91817V18.6787H4.25683V0.638672ZM30.4195 0.638672H32.9902V18.6787H30.4195V0.638672ZM21.2755 0.638672H23.2248V18.6787H21.2755V0.638672ZM17.2408 0.638672H19.4222V18.6787H17.2408V0.638672ZM6.7715 0.638672H8.95284V18.6787H6.7715V0.638672Z" fill="white"/>
</svg>
