<svg width="35" height="13" viewBox="0 0 35 13" fill="none" xmlns="http://www.w3.org/2000/svg">
<path d="M5.82227 3.32416C6.1796 3.20682 6.5636 3.13749 6.9636 3.13749C8.70227 3.13749 10.1529 4.37482 10.4836 6.01216L12.9476 5.51082C12.3823 2.72149 9.91827 0.625488 6.9636 0.625488C6.28627 0.625488 5.6356 0.737488 5.0276 0.940155L5.82227 3.32416ZM2.9156 11.3082L4.5796 9.42549C4.19838 9.08805 3.89329 8.6734 3.68456 8.20905C3.47583 7.74469 3.36824 7.24126 3.36893 6.73216C3.36893 5.66015 3.83827 4.70016 4.5796 4.04416L2.9156 2.16149C1.6516 3.28149 0.856934 4.91349 0.856934 6.73216C0.856934 8.55082 1.6516 10.1882 2.9156 11.3082ZM10.4783 7.45216C10.1423 9.08949 8.69693 10.3215 6.95827 10.3215C6.55827 10.3215 6.17427 10.2575 5.81693 10.1348L5.01693 12.5188C5.62493 12.7215 6.2756 12.8335 6.95293 12.8335C9.9076 12.8335 12.3663 10.7375 12.9369 7.95349L10.4783 7.45216ZM21.1449 9.13749C20.7396 9.53216 20.1849 9.77215 19.5769 9.76682C19.1609 9.76149 18.7716 9.63349 18.4463 9.42549L17.6303 10.7268C18.1903 11.0788 18.8463 11.2868 19.5556 11.2975C20.5903 11.3135 21.5289 10.9082 22.2169 10.2362L21.1449 9.13749ZM19.6676 3.84682C17.6143 3.81482 15.9183 5.45749 15.8863 7.51616C15.8756 8.28949 16.0996 9.00949 16.4889 9.60682L23.2356 6.72149C22.8569 5.09482 21.4116 3.87349 19.6676 3.84682ZM17.4329 7.80416C17.4223 7.71882 17.4169 7.62816 17.4223 7.53749C17.4436 6.32682 18.4409 5.35616 19.6516 5.37749C20.3129 5.38816 20.8943 5.68682 21.2943 6.15616L17.4329 7.80416ZM25.3529 2.16682V9.36149L26.6009 9.87882L26.0089 11.2975L24.7769 10.7855C24.4996 10.6628 24.3129 10.4815 24.1689 10.2735C24.0303 10.0602 23.9289 9.77216 23.9289 9.38282V2.16682H25.3529ZM29.8543 5.48949C30.0729 5.41482 30.3076 5.37749 30.5476 5.37749C31.6089 5.37749 32.4943 6.12949 32.6969 7.13215L34.2009 6.82816C33.8543 5.12682 32.3503 3.84682 30.5476 3.84682C30.1369 3.84682 29.7369 3.91616 29.3689 4.03882L29.8543 5.48949ZM28.0836 10.3642L29.1023 9.21749C28.6489 8.81749 28.3609 8.23082 28.3609 7.57482C28.3609 6.91882 28.6489 6.33749 29.1023 5.93216L28.0836 4.78549C27.3103 5.46815 26.8249 6.46549 26.8249 7.57482C26.8249 8.68415 27.3103 9.68149 28.0836 10.3642ZM32.6969 8.01216C32.4943 9.00949 31.6089 9.76682 30.5476 9.76682C30.3023 9.76682 30.0729 9.72949 29.8543 9.65482L29.3689 11.1108C29.7423 11.2335 30.1369 11.3028 30.5529 11.3028C32.3556 11.3028 33.8596 10.0228 34.2063 8.32149L32.6969 8.01216Z" fill="white"/>
</svg>
