<svg width="45" height="25" viewBox="0 0 45 25" fill="none" xmlns="http://www.w3.org/2000/svg">
<path d="M8.30225 7.2207V15.6207H10.2078V12.1071H13.3374V15.6207H15.2334V7.2207H13.3374V10.4511H10.2078V7.2207H8.30225Z" fill="white"/>
<path d="M31.6399 13.1773C31.6639 13.0381 31.7023 12.7549 31.7023 12.4285C31.7023 10.9213 30.9535 9.38525 28.9855 9.38525C26.8687 9.38525 25.9087 11.0941 25.9087 12.6397C25.9087 14.5453 27.0943 15.7453 29.1631 15.7453C29.9839 15.7453 30.7471 15.6205 31.3711 15.3709L31.1215 14.0893C30.6127 14.2525 30.0847 14.3389 29.4367 14.3389C28.5535 14.3389 27.7807 13.9645 27.7183 13.1821H31.6399V13.1773ZM27.6991 11.8813C27.7471 11.3725 28.0735 10.6477 28.8703 10.6477C29.7439 10.6477 29.9407 11.4205 29.9407 11.8813H27.6991Z" fill="white"/>
<path d="M32.3068 15.6205H34.2028V12.5293C34.2028 12.3805 34.2172 12.2317 34.2412 12.1069C34.366 11.5213 34.8412 11.1469 35.5372 11.1469C35.7484 11.1469 35.9116 11.1709 36.046 11.1949V9.41414C35.9068 9.39014 35.8204 9.39014 35.6476 9.39014C35.062 9.39014 34.3132 9.76454 34.0012 10.6477H33.9532L33.8908 9.52454H32.2588C32.2828 10.0477 32.3068 10.6333 32.3068 11.5309V15.6205Z" fill="white"/>
<path d="M17.158 6.88477C17.6956 6.88477 18.1324 7.32157 18.1324 7.85917C18.1324 8.39677 17.6956 8.83357 17.158 8.83357C16.6204 8.83357 16.1836 8.39677 16.1836 7.85917C16.1836 7.32157 16.6204 6.88477 17.158 6.88477Z" fill="white"/>
<path d="M21.1612 14.1999H22.1116C23.0668 14.1999 23.4988 13.5903 23.4988 12.9519C23.4988 12.3135 23.4508 10.8735 22.2748 10.8735C20.9212 10.8735 21.1372 12.6639 21.1468 13.5999C21.142 13.8015 21.1564 14.0031 21.1612 14.1999ZM16.1836 9.51992H18.1324V12.9567C18.1324 13.5951 18.4876 14.2047 19.27 14.2047C19.2748 12.6591 19.27 11.0655 19.2172 9.51992H20.8444C20.878 9.81752 20.9116 10.1151 20.9404 10.4127C21.7084 8.87672 24.1324 9.21272 24.9484 10.5135C25.7884 11.8527 26.0764 15.6927 22.1116 15.6927H21.19C21.1996 16.4703 21.1996 17.2527 21.1996 18.0351H19.2508C19.2508 17.2863 19.2556 16.4991 19.2604 15.6927C17.1532 15.6831 16.1836 14.3487 16.1836 12.9567V9.51992Z" fill="white"/>
</svg>
