<svg width="36" height="16" viewBox="0 0 36 16" fill="none" xmlns="http://www.w3.org/2000/svg">
<path d="M15.056 15.7903L0.341309 15.7954V15.7607C0.341309 15.7415 0.364775 15.6175 0.393469 15.4848C0.422269 15.3524 0.466802 15.1415 0.492669 15.0163C0.518429 14.8911 0.562589 14.6786 0.590642 14.5438C0.659762 14.2143 0.728082 13.8847 0.795549 13.555C0.822055 13.4249 0.866269 13.2122 0.893949 13.0824C0.929149 12.9161 0.963975 12.7498 0.998535 12.5835C1.02846 12.439 1.0739 12.2185 1.09955 12.0933C1.12515 11.9681 1.16606 11.7753 1.19016 11.6646C1.21432 11.5539 1.24515 11.4042 1.25859 11.3321C1.27214 11.2598 1.31582 11.0471 1.35571 10.8594C1.38931 10.7022 1.42195 10.5447 1.45358 10.3869C1.4675 10.3147 1.51171 10.1021 1.55187 9.91432C1.59198 9.7267 1.63603 9.51395 1.64974 9.44179C1.66344 9.36963 1.70782 9.15683 1.74824 8.96926C1.78867 8.78147 1.83235 8.57267 1.8452 8.50542C1.85816 8.43801 1.89347 8.26473 1.92382 8.12035C1.954 7.97593 2.01139 7.70414 2.05112 7.51646C2.09096 7.32872 2.15891 7.0019 2.20216 6.79006C2.24558 6.57827 2.29741 6.32627 2.31736 6.23C2.37613 5.94691 2.43533 5.66403 2.49512 5.38115C2.52456 5.24158 2.57251 5.01315 2.60168 4.87347C2.6308 4.73395 2.67571 4.51726 2.70147 4.39219C2.72712 4.26702 2.77107 4.05832 2.79896 3.9284C2.82691 3.79838 2.87502 3.56995 2.90579 3.42072C2.93662 3.27155 2.98824 3.04312 3.02051 2.91315C3.05272 2.78318 3.09827 2.62568 3.12184 2.56312C3.14531 2.50051 3.21021 2.36488 3.266 2.26168L3.36739 2.07406L3.4596 1.95534C3.51021 1.89011 3.60072 1.78707 3.66067 1.72627C3.72062 1.66547 3.82168 1.57406 3.88541 1.52307C3.94899 1.47203 4.0412 1.40318 4.09016 1.37011C4.13912 1.33699 4.23528 1.27902 4.30392 1.2412C4.37246 1.2035 4.46872 1.15411 4.51768 1.13144C4.56664 1.10878 4.6668 1.06728 4.74024 1.03934C4.81363 1.01155 4.954 0.964778 5.05187 0.935498C5.14979 0.906271 5.33374 0.862164 5.46056 0.837631C5.58728 0.812938 5.7876 0.780031 5.90579 0.764458L6.12051 0.736084L20.8442 0.730645L35.568 0.725098V0.759871C35.568 0.778964 35.5445 0.903018 35.5156 1.0356C35.4792 1.20328 35.4435 1.37118 35.4084 1.53912C35.3783 1.68355 35.3344 1.89235 35.3107 2.00296C35.2774 2.16046 35.2443 2.31795 35.2115 2.47555C35.1805 2.62483 35.1328 2.85331 35.1056 2.98312C35.0783 3.11315 35.0341 3.32584 35.0073 3.45582C34.9807 3.58574 34.9362 3.79838 34.9087 3.92835C34.8765 4.07998 34.8448 4.23166 34.8135 4.38344C34.7888 4.50376 34.7439 4.7203 34.7141 4.86472C34.6841 5.0091 34.636 5.23752 34.6071 5.37235C34.5782 5.50707 34.5344 5.71582 34.5095 5.83614C34.4845 5.9564 34.4397 6.17305 34.4099 6.31742C34.38 6.46185 34.332 6.69022 34.3031 6.82504C34.2743 6.95987 34.2314 7.16462 34.2075 7.28014C34.1417 7.6011 34.0753 7.922 34.0087 8.2428C33.9844 8.35827 33.9415 8.56318 33.9131 8.69779C33.8767 8.86995 33.8406 9.042 33.8048 9.21427C33.7737 9.36355 33.7293 9.57598 33.7061 9.6868C33.6827 9.79747 33.6392 10.0062 33.6093 10.1505C33.5742 10.3198 33.5389 10.4891 33.5033 10.6582C33.4751 10.7929 33.4307 11.0057 33.4046 11.1309C33.3789 11.2559 33.3336 11.4726 33.3046 11.6121C33.2753 11.7516 33.2277 11.98 33.1986 12.1196C33.1695 12.2593 33.1261 12.468 33.1018 12.5836C33.0689 12.741 33.0362 12.8985 33.0036 13.056C32.9687 13.2248 32.9326 13.3934 32.8957 13.5617L32.8421 13.8048L32.7783 13.9729C32.7432 14.0655 32.6903 14.1885 32.6609 14.2462C32.6314 14.304 32.5715 14.406 32.5277 14.4727C32.4838 14.5395 32.4228 14.625 32.3919 14.6628C32.3611 14.7007 32.2684 14.7983 32.1857 14.8798L32.0357 15.0279L31.891 15.1288C31.8115 15.1844 31.7258 15.2409 31.7007 15.2544C31.6755 15.2679 31.5797 15.3159 31.4879 15.3612C31.3959 15.4064 31.2662 15.4639 31.1995 15.4889C31.1327 15.5142 31.0006 15.5569 30.9056 15.584C30.8107 15.6113 30.709 15.638 30.6797 15.6435C30.6502 15.649 30.5483 15.6697 30.453 15.6896C30.3577 15.7094 30.1654 15.739 30.0256 15.7553L29.7714 15.7851L15.0562 15.7903H15.056ZM9.82067 12.0496H10.2036L10.2144 12.0218C10.2204 12.0065 10.2253 11.9708 10.2253 11.9424C10.2253 11.9137 10.2379 11.8101 10.2533 11.7118C10.2687 11.6135 10.3049 11.3874 10.3337 11.2094C10.3626 11.0312 10.4057 10.7636 10.4296 10.6143C10.4523 10.473 10.474 10.3315 10.4945 10.1898C10.5063 10.1056 10.5206 10.0367 10.5264 10.0367C10.5322 10.0367 10.557 10.0739 10.5815 10.1194L10.6259 10.2022L10.7247 10.2999L10.8235 10.3976L10.9449 10.4454L11.0665 10.4933L11.2112 10.5117L11.3562 10.5302L11.54 10.5191L11.7238 10.5081L11.9228 10.4574L12.1219 10.4068L12.2287 10.3589C12.2875 10.3326 12.3917 10.2751 12.4602 10.2311L12.5849 10.1514L12.7012 10.0371C12.7651 9.97448 12.8553 9.87368 12.9016 9.81347C12.9479 9.75315 12.9857 9.69944 12.9857 9.69406C12.9857 9.68867 13.0085 9.65139 13.0362 9.61112C13.064 9.57091 13.1208 9.45912 13.1625 9.36291C13.2042 9.26659 13.2693 9.09336 13.3074 8.97784L13.3764 8.76782L13.4121 8.5859C13.4317 8.48579 13.4569 8.32046 13.4682 8.21827L13.4886 8.03267L13.4768 7.87518L13.465 7.71768L13.4279 7.56008L13.3907 7.40259L13.3305 7.28467L13.2704 7.16664L13.1542 7.04563L13.038 6.92451L12.9006 6.8547L12.7631 6.78478L12.6117 6.74915L12.4602 6.71358L12.3088 6.7027L12.1576 6.69176L11.9889 6.7108L11.8202 6.72974L11.6826 6.7643L11.545 6.79875L11.4254 6.85326C11.3597 6.88307 11.2639 6.9339 11.2128 6.96611C11.1616 6.99827 11.1088 7.03528 11.0954 7.0484C11.0821 7.06142 11.0501 7.08568 11.0244 7.10216L10.9776 7.13225L11.0103 6.97843C11.0283 6.8939 11.0433 6.81496 11.0437 6.80286L11.0445 6.78099H10.3914L10.3342 7.13544C10.3027 7.33048 10.253 7.63166 10.2237 7.80499C10.1591 8.18723 10.0938 8.56936 10.0277 8.95139C9.99864 9.11982 9.95048 9.38771 9.92072 9.54648C9.89101 9.70536 9.84749 9.93768 9.82397 10.063C9.80051 10.1881 9.75619 10.4243 9.72573 10.588C9.68973 10.7805 9.65336 10.9732 9.61661 11.1655C9.58189 11.3466 9.54643 11.5274 9.51011 11.7081C9.48099 11.8525 9.45288 11.9885 9.44744 12.0101L9.43768 12.0495H9.82067V12.0496V12.0496ZM11.4691 10.0259L11.3205 10.0347L11.2233 10.0178L11.1261 10.001L11.0274 9.95672L10.9286 9.91235L10.8597 9.84766L10.7908 9.78302L10.751 9.6955C10.729 9.64734 10.7009 9.56553 10.6885 9.51369L10.6658 9.41944L10.6749 9.26862L10.6841 9.11784L10.7299 8.88147C10.7645 8.70088 10.7981 8.52003 10.8306 8.33897C10.8607 8.17049 10.9064 7.92355 10.932 7.79038L10.9786 7.54814L11.0808 7.46462C11.1369 7.41875 11.2259 7.35715 11.2785 7.32792L11.3741 7.27464L11.4986 7.23673L11.6233 7.19875L11.7837 7.18952L11.944 7.18024L12.0744 7.20766L12.2049 7.23496L12.2971 7.27667L12.3892 7.31838L12.4664 7.3947L12.5437 7.47102L12.5853 7.55182C12.6083 7.59624 12.6404 7.68328 12.6568 7.7451L12.6866 7.85758L12.6776 8.19022L12.6684 8.52275L12.6227 8.71934C12.5976 8.82744 12.5497 8.99288 12.5163 9.08691L12.4557 9.25795L12.3813 9.3963C12.3403 9.4724 12.2774 9.57534 12.2412 9.62494C12.205 9.67459 12.1474 9.73891 12.1131 9.76776C12.0717 9.80248 12.029 9.83603 11.9856 9.8683L11.9202 9.91614L11.7691 9.96659L11.618 10.0171L11.4691 10.0259V10.0259ZM15.1673 10.507L15.3632 10.5093L15.5591 10.4917C15.6669 10.4821 15.8431 10.4618 15.9509 10.447C16.0587 10.4321 16.2448 10.3986 16.3646 10.3728L16.5822 10.3257L16.5931 10.2468C16.5991 10.2035 16.6235 10.0744 16.6474 9.95976L16.691 9.75171L16.6812 9.74227L16.6717 9.73288L16.6051 9.7644C16.5685 9.78179 16.4544 9.82328 16.3517 9.85656L16.1649 9.91704L15.9688 9.95443L15.7728 9.99176L15.4611 9.9924L15.1494 9.99288L15.0425 9.95934C14.9837 9.94099 14.8974 9.90728 14.8505 9.88446L14.7653 9.84307L14.6949 9.78056L14.6246 9.71806L14.5697 9.62376L14.5148 9.52936L14.4803 9.41123L14.4459 9.29288L14.4457 9.074L14.4454 8.85512L14.4759 8.65992L14.5066 8.46473L14.7745 8.45246L15.0424 8.44014L16.0331 8.44643L17.0237 8.45267L17.0536 8.32792C17.0701 8.25934 17.0953 8.11758 17.1095 8.01288L17.1355 7.82254L17.1361 7.66248L17.1367 7.50238L17.1085 7.38275L17.0802 7.26328L17.0336 7.18414C17.008 7.14062 16.9627 7.07752 16.9331 7.04387C16.9036 7.01032 16.8507 6.96296 16.8158 6.9387C16.7808 6.91443 16.7121 6.87363 16.6632 6.84803L16.574 6.80147L16.4185 6.76467L16.263 6.72792L16.0713 6.7099L15.8795 6.69182L15.7014 6.70318L15.5233 6.71464L15.3096 6.75496L15.0959 6.79534L14.9623 6.84777C14.8888 6.87657 14.7766 6.9292 14.7129 6.96472C14.6494 7.00019 14.5611 7.05795 14.5171 7.09304C14.4729 7.12814 14.3966 7.1964 14.3474 7.24472C14.2983 7.29304 14.2254 7.37971 14.1857 7.43752C14.146 7.49534 14.0851 7.59763 14.0504 7.6651C14.0156 7.73251 13.9704 7.82696 13.9497 7.87512C13.9292 7.92323 13.8918 8.02168 13.8667 8.0939C13.8415 8.16611 13.802 8.30398 13.7789 8.40024C13.7517 8.51694 13.7282 8.63432 13.7084 8.75235L13.6801 8.92958L13.6803 9.19001L13.6806 9.45038L13.7077 9.56419C13.7225 9.62675 13.751 9.72131 13.7709 9.77427C13.7907 9.82712 13.8277 9.906 13.8527 9.9492C13.8778 9.99251 13.9314 10.0624 13.9718 10.1042C14.0122 10.1462 14.0853 10.2098 14.1343 10.2456C14.1832 10.2814 14.2704 10.3318 14.3279 10.3576L14.4326 10.4044L14.5786 10.4391C14.659 10.4581 14.7801 10.4808 14.848 10.4894C14.9159 10.4979 15.0594 10.5059 15.1673 10.507ZM15.5026 8.04136C15.0097 8.04136 14.6063 8.03795 14.6063 8.03363C14.6063 8.02931 14.6273 7.96835 14.653 7.898C14.6786 7.8276 14.7239 7.72291 14.7533 7.66531L14.807 7.56046L14.9247 7.44536L15.0425 7.33011L15.1584 7.27576C15.222 7.24579 15.3062 7.2132 15.3453 7.20334C15.3845 7.19342 15.4967 7.1803 15.5946 7.17422L15.7729 7.16291L15.9096 7.18019L16.0463 7.19747L16.1456 7.24227L16.245 7.28696L16.2995 7.34472C16.3295 7.37651 16.3652 7.42328 16.3789 7.44867L16.4038 7.49486L16.4202 7.59742L16.4368 7.69998L16.4179 7.87064L16.399 8.04131H15.5026V8.04136V8.04136ZM20.8306 10.5071L21.0266 10.5093L21.2491 10.4833C21.3715 10.4691 21.5344 10.4455 21.6112 10.4309C21.7039 10.4125 21.7961 10.391 21.8872 10.3664C21.9623 10.3455 22.0303 10.3231 22.0382 10.3164C22.0461 10.3096 22.0673 10.2302 22.0854 10.1398C22.1033 10.0495 22.1261 9.92819 22.1358 9.87043C22.1454 9.81267 22.1504 9.76243 22.1468 9.75854C22.1433 9.7548 22.1302 9.75966 22.1177 9.76942C22.1052 9.77918 22.0178 9.81528 21.9235 9.84968L21.752 9.9123L21.5078 9.9587L21.2636 10.0053L21.056 9.99838L20.8483 9.99134L20.7303 9.95112L20.6123 9.91086L20.5213 9.83262L20.4301 9.75422L20.3697 9.646L20.3093 9.5379L20.2804 9.3931L20.2517 9.2484L20.2519 9.06056L20.252 8.87278L20.287 8.64515L20.322 8.41763L20.359 8.29502C20.3793 8.22766 20.4023 8.14899 20.4102 8.12008C20.418 8.09118 20.4506 8.00846 20.4827 7.9363C20.5149 7.86414 20.5722 7.75256 20.6101 7.6883L20.6789 7.5716L20.7637 7.48536L20.8484 7.39912L20.9381 7.34456L21.0277 7.28995L21.1429 7.25507C21.2062 7.23592 21.3181 7.21102 21.3915 7.19982L21.5252 7.17928L21.7209 7.18899L21.9169 7.1987L22.1485 7.24424L22.38 7.28974L22.4742 7.32419C22.526 7.34323 22.5706 7.35875 22.5734 7.35875C22.5761 7.35875 22.5886 7.29374 22.601 7.21427C22.6134 7.13491 22.6354 7.00424 22.6501 6.92403C22.6646 6.84366 22.6731 6.77448 22.6688 6.77032C22.6644 6.76606 22.5949 6.75528 22.5142 6.74622C22.4334 6.7372 22.214 6.72115 22.0264 6.71048L21.6856 6.69128L21.4451 6.70942L21.2047 6.72755L21.0265 6.76424L20.8485 6.80104L20.7337 6.84616C20.6706 6.87096 20.5782 6.91577 20.5285 6.94558C20.4807 6.97417 20.4337 7.00392 20.3874 7.03491C20.3597 7.05416 20.2757 7.12931 20.2006 7.2019L20.0642 7.33384L19.988 7.4435C19.9462 7.50382 19.8737 7.62942 19.827 7.72286L19.7422 7.89267L19.6771 8.0764C19.6414 8.17747 19.5914 8.34286 19.5662 8.44392L19.5203 8.62776L19.5036 8.79406L19.487 8.96035L19.4871 9.17912L19.4873 9.39795L19.5041 9.52515L19.5209 9.65251L19.5743 9.7835L19.6275 9.91438L19.6893 10.0089L19.7507 10.1037L19.8487 10.1984L19.9467 10.293L20.0504 10.347L20.1541 10.4008L20.2902 10.438C20.3649 10.4583 20.4733 10.4818 20.5305 10.4902C20.5879 10.4983 20.7229 10.5061 20.8307 10.5071H20.8306V10.5071ZM23.7601 10.5007L24.0005 10.494L24.1519 10.4558L24.3033 10.4176L24.4013 10.3722C24.4551 10.3471 24.5433 10.2978 24.5972 10.2624C24.6511 10.2271 24.7344 10.1598 24.7825 10.113C24.8305 10.0662 24.9018 9.98632 24.9408 9.93555C24.9799 9.88478 25.0141 9.84552 25.017 9.84824C25.02 9.85112 25.011 9.93208 24.997 10.0281C24.9832 10.1243 24.9718 10.2521 24.9715 10.3123L24.9712 10.4217H25.6249L25.635 10.1722L25.6449 9.9228L25.6915 9.59902C25.7171 9.42088 25.7586 9.15704 25.7837 9.01267C25.8087 8.86824 25.852 8.62414 25.8802 8.47006C25.9082 8.31609 25.9528 8.07582 25.9791 7.93625L26.027 7.68248L26.0286 7.46323L26.0301 7.24403L25.9798 7.14275L25.9293 7.04142L25.8609 6.97694L25.7926 6.91235L25.6803 6.85651L25.568 6.80046L25.4007 6.76387L25.2333 6.72723L25.0029 6.71011L24.7725 6.69288L24.4758 6.71096C24.3125 6.72088 24.0827 6.74046 23.9652 6.75448L23.7515 6.77992L23.6058 6.78051L23.4602 6.7811L23.4391 6.88184C23.4274 6.9371 23.395 7.06862 23.3671 7.17406C23.3391 7.2795 23.3189 7.36819 23.3221 7.37123C23.3251 7.37448 23.4031 7.35694 23.4951 7.33267C23.5872 7.3083 23.7828 7.2683 23.9297 7.24366L24.1968 7.19891L24.4372 7.18926L24.6776 7.17939L24.8326 7.20606L24.9873 7.23283L25.0907 7.28291L25.1941 7.3331L25.2519 7.41784L25.3098 7.50264L25.309 7.6363L25.3081 7.77001L25.2775 7.91667L25.2468 8.06334L24.606 8.06563L23.9651 8.06787L23.7554 8.12446C23.6401 8.15555 23.5123 8.19678 23.4717 8.21614C23.4309 8.2355 23.39 8.25139 23.3809 8.25139C23.372 8.25139 23.3033 8.28867 23.2286 8.33454L23.0926 8.41758L22.9855 8.5227C22.9265 8.58041 22.8512 8.66707 22.8182 8.71529C22.7851 8.76339 22.7313 8.86382 22.6988 8.9387L22.6397 9.07454L22.6123 9.22744L22.585 9.38019V9.70104L22.611 9.83459L22.637 9.96798L22.6852 10.0552C22.7118 10.103 22.7605 10.1733 22.7934 10.2111L22.8534 10.2798L22.9598 10.3434L23.0663 10.4071L23.1883 10.4409C23.2553 10.4596 23.3574 10.4821 23.4151 10.4911L23.5201 10.5073L23.7604 10.5007H23.7601V10.5007ZM23.9828 10.0111L23.8403 10.0186L23.7459 9.99496C23.6939 9.98195 23.6153 9.95304 23.571 9.93059L23.4903 9.8899L23.4462 9.83843C23.4219 9.81006 23.3851 9.75459 23.364 9.71502L23.3258 9.64296L23.3184 9.47459L23.3108 9.30638L23.341 9.20435C23.3576 9.14819 23.3965 9.05075 23.4277 8.98787L23.484 8.87342L23.592 8.76814L23.6999 8.6627L23.8145 8.6084L23.9291 8.55422L24.0716 8.52088L24.2141 8.4876H25.1046L25.1327 8.49907L25.1608 8.51049L25.1371 8.64787C25.1241 8.72339 25.093 8.86008 25.0681 8.95144C25.043 9.04296 24.999 9.17731 24.9701 9.25032C24.9412 9.32307 24.9175 9.3875 24.9175 9.39342C24.9175 9.39934 24.8883 9.4524 24.8524 9.51134L24.7874 9.61875L24.6806 9.72275C24.6219 9.77976 24.5674 9.82659 24.5595 9.82659C24.5515 9.82659 24.5157 9.84632 24.4795 9.87038L24.4139 9.91411L24.2695 9.95902L24.125 10.0039L23.9828 10.0111V10.0111ZM29.7796 10.5069L29.9487 10.509L30.1091 10.4834C30.1973 10.4694 30.3094 10.4468 30.3584 10.4331C30.4073 10.4194 30.4956 10.3842 30.5543 10.3546L30.6612 10.3008L30.7531 10.2213L30.8451 10.1417L30.9419 10.0148C30.9951 9.94504 31.0433 9.87614 31.049 9.86168L31.0593 9.83544L31.0503 9.92296C31.044 9.98152 31.0358 10.0399 31.0257 10.0981C31.0171 10.1462 31.0047 10.2387 30.9983 10.3036L30.9865 10.4218H31.6853V10.1854L31.7384 9.73912C31.7677 9.49358 31.811 9.1668 31.8345 9.01278C31.8582 8.85875 31.8947 8.63827 31.9158 8.52275C31.9366 8.40723 31.9738 8.19848 31.9982 8.05891C32.0226 7.91939 32.0666 7.67518 32.0961 7.51635C32.1256 7.35747 32.1728 7.10547 32.2009 6.95619C32.229 6.80702 32.2729 6.57464 32.2982 6.43992C32.3235 6.30515 32.369 6.06878 32.3991 5.9148C32.4306 5.75411 32.4633 5.59368 32.497 5.43342C32.5207 5.32275 32.5401 5.22627 32.5401 5.21907V5.2059H31.7777L31.7665 5.31528C31.7603 5.37555 31.7312 5.57427 31.7016 5.75726C31.6667 5.97326 31.6312 6.1891 31.5948 6.40488C31.5738 6.52931 31.5529 6.65379 31.5324 6.77832L31.5227 6.83667L31.4927 6.82414C31.4761 6.81715 31.3864 6.79267 31.2935 6.76974L31.1242 6.72798L30.8928 6.71027L30.6612 6.69256L30.4652 6.71048L30.2694 6.72846L30.0912 6.77272L29.9132 6.81694L29.744 6.89806L29.5747 6.97918L29.45 7.06984L29.3255 7.16051L29.2177 7.274C29.1585 7.33646 29.073 7.4396 29.0276 7.50344L28.9453 7.61923L28.8484 7.8172C28.7952 7.92611 28.7304 8.07043 28.7045 8.13774C28.6786 8.2052 28.6328 8.35448 28.6027 8.46968L28.5483 8.67912L28.5214 8.95123L28.4946 9.22302L28.5147 9.44184L28.535 9.66067L28.5588 9.73939C28.5719 9.7828 28.5995 9.86003 28.6202 9.91091L28.6577 10.0037L28.7264 10.0949L28.7949 10.1861L28.8733 10.2492L28.9514 10.3121L29.0583 10.3644C29.1172 10.3929 29.2157 10.4301 29.2775 10.4466C29.3391 10.4632 29.4392 10.4833 29.5001 10.491C29.5607 10.4984 29.6865 10.5058 29.7796 10.5069V10.5069ZM30.0833 10.0104L29.9488 10.0173L29.8582 10.0014C29.8082 9.99251 29.7283 9.96878 29.6805 9.94867L29.5939 9.91219L29.5208 9.85336L29.4479 9.79454L29.3936 9.6924L29.3395 9.59032L29.3145 9.47656L29.2899 9.3628L29.292 9.13523L29.2941 8.90771L29.3227 8.70633L29.3514 8.50515L29.3961 8.36515C29.4207 8.28814 29.4409 8.21544 29.4409 8.20366C29.4411 8.19182 29.4654 8.12894 29.4948 8.06366C29.5294 7.98824 29.5659 7.91368 29.6044 7.84003C29.635 7.78227 29.6924 7.69224 29.7318 7.63998C29.7713 7.58771 29.8415 7.50894 29.888 7.46489C29.9344 7.42099 30.0082 7.36328 30.0521 7.33678L30.1318 7.28862L30.2719 7.24099L30.4119 7.1932L30.7057 7.1931H30.9997L31.1688 7.23923C31.2618 7.26467 31.3607 7.294 31.3884 7.30467L31.4388 7.32392L31.4289 7.37192C31.4235 7.39832 31.4023 7.51448 31.3818 7.62995C31.3615 7.74552 31.321 7.96611 31.2922 8.12008C31.2633 8.27406 31.2191 8.50648 31.1937 8.6364C31.1686 8.76643 31.132 8.93182 31.1124 9.00398C31.0924 9.07816 31.072 9.15219 31.0513 9.22627C31.0371 9.27624 31.0035 9.36291 30.9767 9.41875C30.9497 9.47454 30.9025 9.55571 30.8718 9.59907C30.8411 9.64238 30.7892 9.70248 30.7564 9.7324C30.7237 9.76248 30.6528 9.81582 30.5989 9.85096L30.5009 9.91502L30.3593 9.95912L30.2178 10.0033L30.0833 10.0104V10.0104ZM3.87262 10.4218H4.30526L4.33635 10.2337C4.35336 10.1301 4.38675 9.93128 4.41043 9.79176L4.50835 9.21416C4.53853 9.03603 4.58387 8.77214 4.60899 8.62776C4.63405 8.48339 4.67405 8.25939 4.69763 8.13006C4.72136 8.00057 4.7452 7.89038 4.7507 7.88494L4.76072 7.87512H7.08771L7.10067 7.88782L7.11363 7.90051L7.09341 8.00153C7.08237 8.05715 7.04952 8.22867 7.02056 8.38265C6.99149 8.53667 6.94275 8.79662 6.91203 8.9603C6.87981 9.13251 6.84707 9.30467 6.81373 9.47662C6.79027 9.59699 6.74269 9.84889 6.70808 10.0367C6.67352 10.2244 6.64525 10.3878 6.64536 10.3999L6.64557 10.4218H7.51453L7.53373 10.3124C7.54435 10.2522 7.56136 10.144 7.5716 10.0718C7.58173 9.99955 7.60643 9.84595 7.62632 9.73048C7.64621 9.61491 7.68589 9.38643 7.71459 9.2228C7.74323 9.05912 7.79133 8.77955 7.82131 8.60147C7.85128 8.42334 7.89576 8.16344 7.92024 8.02392C7.95112 7.84862 7.98333 7.67363 8.01677 7.4988C8.04547 7.34947 8.09331 7.09758 8.12312 6.93864C8.15293 6.77987 8.19747 6.5396 8.22211 6.40483C8.24691 6.27011 8.29197 6.02595 8.32237 5.86227C8.35272 5.69859 8.39117 5.5076 8.4076 5.43779L8.43763 5.3108H7.55779L7.54584 5.39406C7.53928 5.43966 7.51805 5.56787 7.49864 5.67843C7.47917 5.78926 7.44392 5.98606 7.42019 6.11603C7.39645 6.24606 7.35315 6.49406 7.32381 6.66744C7.29512 6.8372 7.2675 7.00707 7.24094 7.17715L7.21123 7.37176L6.56547 7.38462L5.91966 7.39747L5.3788 7.38489C5.08131 7.3779 4.83624 7.37081 4.83421 7.36926C4.83213 7.3675 4.84227 7.2995 4.85661 7.218C4.8756 7.11299 4.89576 7.00819 4.9172 6.90366C4.94451 6.76952 4.97102 6.63539 4.99678 6.50099C5.02168 6.37107 5.04984 6.20963 5.05949 6.14222C5.06899 6.07486 5.08909 5.96264 5.10397 5.89272C5.11891 5.82296 5.14728 5.67598 5.16702 5.56616C5.1867 5.45624 5.20771 5.35384 5.21368 5.33854L5.22446 5.31075H4.35171L4.32387 5.46398C4.30846 5.54824 4.28792 5.66835 4.27827 5.73086C4.26862 5.79347 4.23608 5.99427 4.206 6.1772C4.17603 6.36014 4.13155 6.63187 4.10739 6.78104L4.00968 7.38489C3.97528 7.59513 3.93907 7.80526 3.90099 8.01496C3.86931 8.18718 3.83704 8.35928 3.80408 8.53134C3.78088 8.65155 3.73677 8.88008 3.706 9.03891C3.67368 9.20536 3.6404 9.37166 3.60611 9.53779C3.58195 9.6532 3.55528 9.78713 3.54691 9.83529C3.53837 9.88345 3.5108 10.0222 3.48557 10.1438C3.46035 10.2653 3.43971 10.3775 3.43971 10.3933V10.4216H3.87262V10.4218V10.4218ZM8.66285 10.4218H9.04589L9.05672 10.394C9.06269 10.3788 9.06755 10.3389 9.06755 10.3054C9.06755 10.2718 9.09165 10.0972 9.12104 9.91731C9.18824 9.5076 9.25709 9.09822 9.32771 8.68899C9.35789 8.51662 9.38979 8.34451 9.42317 8.17262C9.45155 8.02824 9.49512 7.80376 9.51997 7.67379C9.54472 7.54382 9.59363 7.29662 9.62851 7.12435C9.66333 6.95208 9.69624 6.80424 9.70157 6.79582L9.71128 6.78046L9.32387 6.7851L8.93651 6.78984L8.90419 7.01752C8.88648 7.14264 8.84765 7.39075 8.818 7.56878C8.78835 7.74691 8.74349 8.0187 8.71821 8.17262C8.68776 8.35678 8.65523 8.54051 8.62061 8.72398C8.59213 8.8732 8.54851 9.10158 8.5236 9.23161C8.49875 9.36169 8.45411 9.59 8.42445 9.73918C8.39475 9.88846 8.35496 10.0853 8.33597 10.1767C8.31693 10.2684 8.29651 10.3608 8.29059 10.3824L8.27981 10.4218H8.66285V10.4218ZM17.6223 10.4218H18.0025L18.0139 10.2637C18.0202 10.1767 18.0417 10.0015 18.0617 9.87416C18.0818 9.74696 18.1229 9.4932 18.1529 9.31038C18.191 9.0843 18.2323 8.8587 18.2771 8.63374C18.3153 8.44456 18.3585 8.25646 18.3731 8.21587C18.3878 8.17518 18.3997 8.13118 18.3997 8.118C18.3997 8.10478 18.4282 8.03288 18.4632 7.95827C18.4981 7.88366 18.5633 7.76936 18.6079 7.70424L18.6891 7.58595L18.7977 7.48707L18.9063 7.38819L19.0404 7.32531L19.1744 7.26243L19.3792 7.2635L19.5841 7.26462L19.6847 7.29411C19.74 7.31043 19.7902 7.32376 19.7961 7.32376C19.8018 7.32376 19.8066 7.3051 19.8066 7.28238C19.8066 7.25971 19.8267 7.1444 19.8512 7.02616C19.8757 6.90803 19.8956 6.80638 19.8956 6.80035C19.8956 6.79422 19.8376 6.77182 19.7665 6.75059C19.6955 6.72942 19.5974 6.70723 19.5484 6.70126L19.4592 6.69043L19.3436 6.71054C19.2799 6.72158 19.1853 6.746 19.1333 6.76488C19.0812 6.7836 18.9952 6.82627 18.9422 6.8595C18.8893 6.89294 18.8069 6.95784 18.7592 7.00376C18.7114 7.04979 18.6311 7.14264 18.5806 7.21C18.5414 7.26238 18.5023 7.31486 18.4635 7.3675L18.438 7.40248L18.4535 7.33251C18.4619 7.2939 18.4857 7.16787 18.5061 7.05246C18.5265 6.93694 18.5477 6.82856 18.5528 6.81176L18.5624 6.7811H17.8832V6.82328C17.8832 6.84654 17.8631 6.98627 17.8387 7.1339C17.8142 7.28168 17.7738 7.52846 17.7489 7.68254C17.724 7.83651 17.6799 8.10441 17.6508 8.27763C17.6198 8.46163 17.5871 8.64542 17.5527 8.82888C17.4856 9.17923 17.417 9.52931 17.347 9.87907C17.317 10.0284 17.2811 10.2046 17.2673 10.2708C17.2534 10.3368 17.2421 10.3977 17.2421 10.4063V10.4217H17.6223V10.4218V10.4218ZM26.6485 10.4218H27.0373V10.1879L27.0821 9.89784C27.1068 9.73848 27.1474 9.48574 27.1725 9.33662C27.1975 9.18739 27.2287 8.99838 27.2418 8.91646C27.2549 8.83464 27.2896 8.65753 27.319 8.5227C27.3484 8.38793 27.3849 8.24216 27.4005 8.19886C27.4159 8.1556 27.4287 8.11011 27.4288 8.0979C27.429 8.08568 27.4621 8.00702 27.5023 7.92318L27.5758 7.77059L27.6726 7.64419L27.7695 7.51779L27.8753 7.4395C27.9336 7.39635 28.0273 7.33928 28.0835 7.31251L28.1859 7.26382L28.4085 7.26531L28.6311 7.26686L28.7188 7.29454L28.8065 7.32222L28.8211 7.31315L28.8359 7.30419L28.8367 7.24835C28.8371 7.21758 28.8561 7.10334 28.879 6.99432L28.9206 6.79614L28.8739 6.77816C28.8289 6.76174 28.7837 6.74659 28.7379 6.73262L28.649 6.70499L28.4887 6.70547L28.3284 6.70584L28.1978 6.75107L28.0671 6.79619L27.9691 6.85438L27.8709 6.91256L27.7434 7.04382L27.6158 7.17507L27.5473 7.27694C27.5097 7.33288 27.4766 7.37619 27.4736 7.3731C27.4707 7.37011 27.4913 7.25342 27.5192 7.11384C27.5471 6.97422 27.5703 6.84227 27.5707 6.82062L27.5715 6.78126H26.9126V6.7924C26.9126 6.79854 26.8962 6.91086 26.876 7.0419C26.856 7.17294 26.8156 7.42584 26.7865 7.60398C26.7514 7.81699 26.716 8.0299 26.68 8.2428C26.6487 8.42691 26.616 8.61064 26.5817 8.79422C26.5569 8.92414 26.5131 9.15251 26.4841 9.30179C26.4552 9.45102 26.4075 9.69128 26.3784 9.83566L26.2925 10.2601L26.2597 10.422H26.6485V10.4218ZM9.41645 6.1507L9.52445 6.15107L9.61043 6.12232L9.6964 6.09352L9.77251 6.01763L9.84856 5.9419L9.88856 5.84078L9.92867 5.73971L9.93005 5.59096L9.93155 5.44227L9.89592 5.38408L9.86035 5.32595L9.79837 5.28835L9.73624 5.25054H9.46851L9.37736 5.29064L9.28627 5.33075L9.23336 5.38648L9.18045 5.44227L9.13885 5.53854L9.09731 5.63475L9.08947 5.78472L9.08168 5.93464L9.12029 6.0092L9.15896 6.08366L9.23368 6.11699L9.30824 6.15022L9.41645 6.1507Z" fill="white"/>
</svg>
