<svg width="24" height="19" viewBox="0 0 24 19" fill="none" xmlns="http://www.w3.org/2000/svg">
<path d="M1.67258 11.2285C1.33361 11.128 0.636167 10.8074 0.636167 10.8074L0.629111 3.32181C0.629111 3.32181 0.592055 2.48551 1.51476 1.6206C2.43742 0.755637 3.44297 0.81127 3.44297 0.81127H7.78303L7.773 15.2021C7.773 15.2021 7.83886 16.2732 7.04503 17.1521C6.16054 18.1689 4.90327 18.1162 4.90327 18.1162H0.637559V12.0485L2.22492 12.3275C2.22492 12.3275 2.8363 12.3885 3.44292 12.401C3.97466 12.4119 4.46834 12.3653 4.7959 12.3145C5.42258 12.2173 5.74625 12.1322 6.33943 11.7795C7.22335 11.1358 7.18342 10.1472 7.18342 10.1472L7.16038 6.68565L4.68953 6.69943V10.1014C4.68953 10.1014 4.71276 10.7396 4.20593 11.1345C3.98374 11.3077 3.66007 11.4657 3.05676 11.4657C2.62764 11.4658 2.04943 11.3402 1.67258 11.2285V11.2285ZM8.70266 7.58321V3.76994C8.70266 3.76994 8.65865 2.655 9.48425 1.80031C10.3098 0.945573 11.3838 0.912358 11.3838 0.912358H15.8528V15.3743C15.8528 15.3743 15.9075 16.4369 15.0384 17.3171C14.1726 18.1941 13.2166 18.1993 13.2166 18.1993H8.70266V11.5576C8.70266 11.5576 9.30012 12.1882 10.9943 12.4267C11.7896 12.5387 12.7305 12.5218 13.5039 12.4267C14.378 12.3193 15.0384 12.1237 15.0384 12.1237L15.0204 10.9198C15.0204 10.9198 14.7068 11.1111 13.7484 11.4019C12.7899 11.6929 10.3951 11.8252 10.3286 9.65642C10.2619 7.48759 12.3019 7.46839 13.2166 7.58287C14.1313 7.69745 15.0384 8.19036 15.0384 8.19036V7.01316C15.0384 7.01316 13.8838 6.75242 13.3916 6.69847C12.7845 6.63199 11.9288 6.56013 10.6185 6.7529C9.30833 6.94577 8.70266 7.58287 8.70266 7.58287V7.58292V7.58321ZM16.6735 12.2439V18.1095H21.1606C21.1606 18.1095 22.1906 18.0113 22.7922 17.4179C23.7714 16.6696 23.8153 15.471 23.8153 15.471V0.810837H19.5362C19.5362 0.810837 18.395 0.775413 17.5155 1.66226C16.636 2.54916 16.6735 3.58231 16.6735 3.58231V6.6978H21.0264C21.0264 6.6978 21.4263 6.70442 21.8213 6.86037C22.1339 6.98373 22.4392 7.20679 22.5704 7.55037C22.8658 8.32221 22.4191 8.87738 22.1906 9.02839C21.8897 9.28961 21.3514 9.36905 21.3514 9.36905C21.3514 9.36905 22.1304 9.44791 22.5704 9.8477C22.7158 9.97721 22.8832 10.1939 22.9507 10.4109C23.0397 10.6969 23.0043 10.9756 23.0043 10.9756C23.0043 10.9756 22.9507 11.4663 22.5401 11.7984C22.3649 11.9401 22.1268 12.0702 21.8854 12.1404C21.561 12.2348 21.2488 12.2439 21.2488 12.2439H16.6735V12.2438V12.2439ZM18.104 7.62487V9.03477H19.6483C19.6483 9.03477 20.372 9.03271 20.372 8.32879C20.372 7.62487 19.6483 7.62487 19.6483 7.62487H18.104ZM19.7558 9.86282H18.104V11.3777H19.7558C19.7606 11.3777 20.5702 11.4247 20.5702 10.6203C20.5702 9.81588 19.7558 9.86282 19.7558 9.86282Z" fill="white"/>
</svg>
