<svg width="45" height="25" viewBox="0 0 45 25" fill="none" xmlns="http://www.w3.org/2000/svg">
<path d="M37.3395 12.5165C37.3395 17.5915 33.12 21.7219 27.9339 21.7219C25.7707 21.7219 23.7766 21.0019 22.1859 19.7976C20.5959 21.0019 18.6018 21.7219 16.4388 21.7219C11.2529 21.7219 7.03369 17.5916 7.03369 12.5165C7.03369 7.44099 11.253 3.31299 16.4388 3.31299C18.6019 3.31299 20.5961 4.03035 22.1859 5.2363C23.7767 4.03035 25.7708 3.31299 27.9339 3.31299C33.1198 3.31299 37.3395 7.44137 37.3395 12.5165ZM27.9204 4.12563C26.0126 4.12563 24.2512 4.73734 22.8281 5.76963C24.1186 6.94505 25.0731 8.47145 25.5291 10.1917H24.6574C24.2108 8.67084 23.3379 7.32814 22.1721 6.29484C21.0076 7.32814 20.134 8.67084 19.6891 10.1917H18.8161C19.2732 8.47145 20.2276 6.94505 21.5182 5.76963C20.0944 4.73734 18.3338 4.12563 16.4249 4.12563C11.6959 4.12563 7.86222 7.87731 7.86222 12.5064C7.86222 17.1343 11.6959 20.8872 16.4249 20.8872C18.3338 20.8872 20.0944 20.2755 21.5182 19.2433C20.3039 18.1365 19.3877 16.7184 18.9034 15.1222H19.7849C20.2531 16.5199 21.0844 17.7535 22.1721 18.7179C23.261 17.7535 24.0934 16.5199 24.5617 15.1222H25.4428C24.9577 16.7185 24.0418 18.1365 22.828 19.2433C24.251 20.2755 26.0123 20.8872 27.9204 20.8872C32.6494 20.8872 36.4831 17.1343 36.4831 12.5064C36.4831 7.8774 32.6494 4.12563 27.9204 4.12563H27.9204Z" fill="white"/>
<path d="M12.9614 10.4946H11.5903L10.7334 12.9946L10.6978 10.4946H9.42711L8.7373 14.5338H9.5642L10.0953 11.4479L10.1694 14.5338H10.7719L11.9009 11.4294L11.395 14.5338H12.2781L12.9614 10.4946ZM15.2372 14.53H14.5052L14.5223 14.1891C14.2988 14.4582 14.0013 14.587 13.597 14.587C13.1174 14.587 12.7908 14.2205 12.7908 13.6905C12.7908 12.8895 13.3604 12.424 14.3402 12.424C14.4406 12.424 14.5691 12.4331 14.7005 12.4496C14.7278 12.3403 14.7344 12.2944 14.7344 12.2356C14.7344 12.0189 14.5813 11.9372 14.1684 11.9372C13.7367 11.9317 13.3802 12.0374 13.2338 12.0851C13.2432 12.03 13.3568 11.3466 13.3568 11.3466C13.796 11.2199 14.0868 11.1722 14.4134 11.1722C15.1717 11.1722 15.5735 11.5046 15.5725 12.1347C15.5735 12.3037 15.5452 12.5121 15.5011 12.7869C15.4242 13.2616 15.2599 14.2811 15.2373 14.5299V14.53H15.2372ZM14.6168 13.0821C14.5239 13.0728 14.4834 13.0692 14.4196 13.0692C13.9185 13.0692 13.6659 13.2371 13.6659 13.5678C13.6659 13.7728 13.7899 13.9031 13.9813 13.9031C14.3418 13.9031 14.6006 13.5678 14.6168 13.0821ZM26.8016 10.4043C25.6312 10.4043 24.8127 11.4127 24.8127 12.8566C24.8127 13.9293 25.4051 14.5998 26.3558 14.5998C26.5997 14.5998 26.8108 14.5685 27.1356 14.4804L27.2904 13.561C26.9985 13.7016 26.7584 13.7686 26.5404 13.7686C26.0271 13.7686 25.7173 13.3974 25.7173 12.7848C25.7173 11.8948 26.1783 11.2712 26.838 11.2712C27.083 11.2712 27.312 11.3337 27.6272 11.4899L27.7718 10.6138C27.6424 10.5641 27.1871 10.4043 26.8016 10.4043ZM29.978 14.53H29.247L29.2639 14.1891C29.0396 14.4582 28.7411 14.587 28.3375 14.587C27.8589 14.587 27.5304 14.2205 27.5304 13.6905C27.5304 12.8895 28.102 12.424 29.0808 12.424C29.1813 12.424 29.3099 12.4331 29.4414 12.4496C29.4684 12.3403 29.4751 12.2944 29.4751 12.2356C29.4751 12.0189 29.3221 11.9372 28.91 11.9372C28.4775 11.9317 28.1218 12.0374 27.9753 12.0851C27.9838 12.03 28.0974 11.3466 28.0974 11.3466C28.5375 11.2199 28.8283 11.1722 29.1531 11.1722C29.9124 11.1722 30.3142 11.5046 30.3132 12.1347C30.315 12.3037 30.286 12.5121 30.2418 12.7869C30.1659 13.2616 30.0008 14.2811 29.9781 14.5299V14.53H29.978ZM29.3572 13.0821C29.2653 13.0728 29.224 13.0692 29.1592 13.0692C28.6589 13.0692 28.4055 13.2371 28.4055 13.5678C28.4055 13.7728 28.5295 13.9031 28.7229 13.9031C29.0824 13.9031 29.3423 13.5678 29.3572 13.0821ZM19.583 13.7688C19.5239 13.7891 19.446 13.7999 19.3456 13.7999C19.1354 13.7999 19.0425 13.7266 19.0425 13.5566C19.0444 13.452 19.1899 12.6749 19.2913 12.0512H19.7444L19.8646 11.2613H19.4131L19.5154 10.7656H18.6379C18.6379 10.7656 18.3058 12.6989 18.256 13.0046C18.1997 13.3546 18.1285 13.7358 18.1339 13.8808C18.1339 14.3484 18.3799 14.6029 18.8312 14.6029C19.036 14.6029 19.2243 14.5697 19.4667 14.4963L19.583 13.7688ZM22.2809 14.4547C21.9787 14.5448 21.6876 14.587 21.3799 14.587C20.3962 14.585 19.884 14.0828 19.884 13.1211C19.884 11.9987 20.5361 11.1721 21.4212 11.1721C22.1447 11.1721 22.6075 11.6341 22.6075 12.3614C22.6075 12.6021 22.5747 12.8363 22.4985 13.1698H20.751C20.6919 13.6445 21.0037 13.8429 21.5142 13.8429C21.8284 13.8429 22.111 13.7804 22.4263 13.6372L22.2809 14.4547ZM21.8207 12.5279C21.8264 12.4599 21.9135 11.94 21.4124 11.94C21.1326 11.94 20.9319 12.1504 20.8513 12.5279H21.8207ZM15.9364 12.2834C15.9364 12.6996 16.1409 12.9852 16.6083 13.2011C16.9659 13.3663 17.0212 13.4141 17.0212 13.5639C17.0212 13.7676 16.8636 13.8596 16.5135 13.8596C16.2507 13.8596 16.0048 13.8209 15.7223 13.731C15.7223 13.731 15.6061 14.4547 15.6003 14.4897C15.8022 14.5321 15.9804 14.5722 16.5201 14.5871C17.4519 14.5871 17.8819 14.2389 17.8819 13.4894C17.8819 13.0367 17.7026 12.774 17.2595 12.5745C16.8899 12.4074 16.8467 12.3707 16.8467 12.2174C16.8467 12.0391 16.994 11.9491 17.2802 11.9491C17.4528 11.9491 17.6903 11.9676 17.9137 11.9988L18.0395 11.2364C17.8105 11.2015 17.4642 11.1722 17.2624 11.1722C16.2742 11.1721 15.9326 11.6763 15.9364 12.2834ZM34.9492 14.5338H34.1131L34.1553 14.2281C33.9122 14.4808 33.6637 14.591 33.3408 14.591C32.6987 14.591 32.2746 14.0499 32.2746 13.2289C32.2746 12.1348 32.9323 11.2146 33.7112 11.2146C34.053 11.2146 34.3138 11.3506 34.5552 11.662L34.7503 10.4947H35.6213L34.9492 14.5338ZM33.6484 13.781C34.0594 13.781 34.3494 13.3244 34.3494 12.6741C34.3494 12.2562 34.1852 12.0302 33.8809 12.0302C33.4802 12.0302 33.1959 12.4868 33.1959 13.1325C33.1959 13.5633 33.3481 13.781 33.6484 13.781ZM30.9325 11.2528C30.8218 12.2687 30.6255 13.2982 30.4726 14.3159L30.4322 14.5372H31.3144C31.6307 12.5286 31.7076 12.1364 32.2022 12.186C32.2809 11.7736 32.4273 11.4146 32.5381 11.2328C32.1676 11.1573 31.961 11.3631 31.6918 11.7517C31.7132 11.5826 31.7518 11.42 31.7434 11.2528H30.9325ZM23.1953 11.2528C23.0844 12.2687 22.8874 13.2982 22.7344 14.3159L22.6939 14.5372H23.577C23.8934 12.5286 23.9693 12.1364 24.4639 12.186C24.5437 11.7736 24.691 11.4146 24.8 11.2328C24.4311 11.1573 24.223 11.3631 23.9534 11.7517C23.975 11.5826 24.0133 11.42 24.0059 11.2528H23.1953Z" fill="white"/>
</svg>
