<svg width="24" height="25" viewBox="0 0 24 25" fill="none" xmlns="http://www.w3.org/2000/svg">
<path d="M17.5973 17.8052C16.8126 17.8052 16.0746 17.4997 15.5197 16.9451L12.52 13.9452C12.3093 13.734 11.9423 13.7347 11.7317 13.9452L8.72096 16.956C8.16608 17.5106 7.42806 17.8162 6.64341 17.8162H6.05225L9.85157 21.6154C11.0381 22.8019 12.9619 22.8019 14.1485 21.6154L17.9586 17.8052H17.5973Z" fill="white"/>
<path d="M6.64324 7.19446C7.42789 7.19446 8.16591 7.49998 8.72079 8.0546L11.7315 11.0659C11.9483 11.2828 12.3024 11.2836 12.5197 11.0656L15.5195 8.06557C16.0744 7.51096 16.8124 7.20544 17.597 7.20544H17.9584L14.1483 3.39531C12.9617 2.20872 11.0379 2.20872 9.8514 3.39531L6.05225 7.19448L6.64324 7.19446Z" fill="white"/>
<path d="M21.1101 10.357L18.8077 8.05458C18.757 8.07488 18.7021 8.08755 18.6441 8.08755H17.5973C17.056 8.08755 16.5262 8.30708 16.1438 8.68979L13.1441 11.6896C12.8634 11.9703 12.4945 12.1107 12.126 12.1107C11.7571 12.1107 11.3885 11.9703 11.1079 11.6898L8.0969 8.67883C7.71446 8.29603 7.18466 8.07659 6.64343 8.07659H5.35621C5.3013 8.07659 5.25 8.06365 5.20156 8.04541L2.88994 10.357C1.70335 11.5436 1.70335 13.4674 2.88994 14.6539L5.20147 16.9655C5.24999 16.9472 5.3013 16.9343 5.35621 16.9343H6.64343C7.18466 16.9343 7.71446 16.7149 8.0969 16.3322L11.1076 13.3214C11.6518 12.7777 12.6005 12.7775 13.1441 13.3217L16.1438 16.3212C16.5262 16.7039 17.056 16.9234 17.5973 16.9234H18.6441C18.7021 16.9234 18.757 16.9361 18.8077 16.9564L21.1101 14.6539C22.2966 13.4673 22.2966 11.5436 21.1101 10.357Z" fill="white"/>
</svg>
