<svg width="45" height="25" viewBox="0 0 45 25" fill="none" xmlns="http://www.w3.org/2000/svg">
<path d="M17.2549 17.7162L18.9668 7.9125H21.7052L19.9919 17.7162H17.2549ZM29.8842 8.1237C29.3417 7.92509 28.4918 7.71191 27.4301 7.71191C24.7245 7.71191 22.8186 9.04157 22.8024 10.9472C22.7871 12.356 24.163 13.1418 25.2015 13.6107C26.2674 14.0913 26.6257 14.3977 26.6206 14.8268C26.6139 15.484 25.7694 15.7842 24.9825 15.7842C23.8866 15.7842 23.3043 15.6356 22.4051 15.2696L22.0522 15.1138L21.6678 17.3084C22.3075 17.5821 23.4901 17.8192 24.718 17.8315C27.5963 17.8315 29.4648 16.517 29.4861 14.4821C29.4964 13.3668 28.7669 12.518 27.1871 11.8184C26.2301 11.3649 25.6439 11.0622 25.6502 10.603C25.6502 10.1955 26.1462 9.7597 27.2181 9.7597C28.1136 9.74615 28.7622 9.93671 29.2676 10.1353L29.5129 10.2485L29.8842 8.12354L29.8842 8.1237ZM36.9306 7.91218H34.8148C34.1593 7.91218 33.6688 8.08679 33.3808 8.72525L29.3144 17.7098H32.1896C32.1896 17.7098 32.6598 16.5016 32.7662 16.2364C33.0804 16.2364 35.8736 16.2407 36.2729 16.2407C36.3548 16.5839 36.606 17.7098 36.606 17.7098H39.1469L36.9306 7.91191V7.91218ZM33.5736 14.2428C33.8 13.678 34.6645 11.5023 34.6645 11.5023C34.6484 11.5285 34.8893 10.9347 35.0277 10.5667L35.2127 11.412C35.2127 11.412 35.737 13.7521 35.8466 14.2428H33.5736ZM14.9309 7.91218L12.2502 14.5975L11.9645 13.2388C11.4655 11.6726 9.9106 9.97575 8.17236 9.12626L10.6235 17.7001L13.5206 17.6969L17.8314 7.91181H14.9309" fill="white"/>
<path d="M9.74809 7.91211H5.33278L5.29785 8.11611C8.73284 8.92763 11.0056 10.8886 11.9496 13.245L10.9895 8.73974C10.8237 8.11904 10.343 7.93382 9.7483 7.91211" fill="white"/>
</svg>
