<svg width="105" height="28" viewBox="0 0 105 28" fill="none" xmlns="http://www.w3.org/2000/svg">
<path d="M100.886 27.0937C102.064 27.0937 103.044 26.7105 103.826 25.938C104.607 25.1686 105 24.1952 105 23.0148C105 21.8128 104.617 20.8363 103.847 20.0916C103.078 19.3469 102.092 18.973 100.889 18.973C99.7118 18.973 98.729 19.3469 97.9471 20.0916C97.1651 20.8363 96.7726 21.8128 96.7726 23.0148C96.7726 24.1921 97.1713 25.1686 97.9625 25.938C98.7568 26.7105 99.7304 27.0937 100.886 27.0937ZM84.144 22.7645C83.3497 22.7645 82.7254 22.5853 82.268 22.2237C81.8106 21.8622 81.5818 21.3832 81.5818 20.7807C81.5818 19.4581 82.5801 18.7969 84.5767 18.7969H87.5345V20.4933C87.2687 21.2411 86.836 21.8035 86.2364 22.1898C85.6368 22.5729 84.9383 22.7645 84.144 22.7645ZM84.3975 6.89084C82.8336 6.89084 81.2759 7.08861 79.7243 7.48722C78.1728 7.88584 76.8562 8.44515 75.7744 9.16513L78.0832 13.8188C78.757 13.2904 79.576 12.8763 80.5372 12.5735C81.4984 12.2737 82.4503 12.1223 83.3868 12.1223C86.0324 12.1223 87.4171 13.1575 87.5345 15.2247H83.6372C80.6794 15.2247 78.4911 15.7346 77.0694 16.7574C75.6508 17.7802 74.94 19.2171 74.94 21.0681C74.94 22.2206 75.2212 23.2496 75.7868 24.1519C76.3524 25.0542 77.1869 25.7711 78.2934 26.2995C79.3998 26.8279 80.7103 27.0937 82.2247 27.0937C85.0867 27.0937 87.0122 26.145 87.9981 24.2446V26.7692H94.3835V15.9107C94.3835 12.8578 93.5305 10.5896 91.8213 9.10951C90.1214 7.63246 87.6427 6.89084 84.3975 6.89084ZM62.2774 21.6459C61.0751 21.6459 60.0892 21.2318 59.3196 20.4006C58.55 19.5725 58.1668 18.423 58.1668 16.9552C58.1668 15.5121 58.55 14.3812 59.3196 13.5654C60.0892 12.7465 61.0751 12.3386 62.2774 12.3386C63.4797 12.3386 64.4594 12.7465 65.2197 13.5654C65.977 14.3842 66.3571 15.5121 66.3571 16.9552C66.3571 18.423 65.9739 19.5725 65.2043 20.4006C64.4316 21.2318 63.458 21.6459 62.2774 21.6459ZM66.2458 0.00308837V8.91484C64.9694 7.56757 63.1675 6.89393 60.834 6.89393C59.0538 6.89393 57.4312 7.30182 55.9631 8.12069C54.495 8.93956 53.336 10.1107 52.483 11.6372C51.6269 13.1637 51.2004 14.9374 51.2004 16.9583C51.2004 18.9792 51.6269 20.7591 52.483 22.2979C53.336 23.8368 54.4981 25.0203 55.9631 25.8515C57.4281 26.6827 59.0538 27.0968 60.834 27.0968C63.3839 27.0968 65.2939 26.3397 66.5704 24.8225V26.7692H73.101V0L66.2458 0.00308837ZM41.0969 6.89084C39.8452 6.89084 38.6923 7.10097 37.6322 7.52121C36.5721 7.94146 35.6604 8.55021 34.8908 9.34126V7.21221H28.3602V26.7661H35.2153V17.3136C35.2153 15.7748 35.5707 14.6222 36.2785 13.8497C36.9894 13.0802 37.932 12.694 39.1127 12.694C41.2545 12.694 42.3239 14.0289 42.3239 16.6987V26.763H49.1791V15.5801C49.1791 12.6693 48.4404 10.4939 46.9599 9.0508C45.4826 7.61392 43.5262 6.89084 41.0969 6.89084ZM21.5761 1.51722L14.5757 17.9687L7.72054 1.51722H0L10.7896 26.7692H17.8271L28.6507 1.51722H21.5761Z" fill="#B92C38"/>
</svg>
