<svg width="124" height="33" viewBox="0 0 124 33" fill="none" xmlns="http://www.w3.org/2000/svg">
<path d="M119.142 32.0042C120.533 32.0042 121.69 31.5517 122.613 30.6394C123.536 29.7307 124 28.5812 124 27.1872C124 25.7676 123.547 24.6145 122.639 23.735C121.73 22.8556 120.565 22.414 119.146 22.414C117.755 22.414 116.594 22.8556 115.671 23.735C114.747 24.6145 114.284 25.7676 114.284 27.1872C114.284 28.5775 114.755 29.7307 115.689 30.6394C116.627 31.5517 117.777 32.0042 119.142 32.0042ZM99.3701 26.8916C98.4321 26.8916 97.6948 26.68 97.1546 26.253C96.6144 25.826 96.3443 25.2604 96.3443 24.5488C96.3443 22.9869 97.5232 22.206 99.8811 22.206H103.374V24.2094C103.06 25.0925 102.549 25.7567 101.841 26.2129C101.133 26.6654 100.308 26.8916 99.3701 26.8916ZM99.6694 8.14557C97.8225 8.14557 95.9829 8.37912 94.1507 8.84987C92.3184 9.32062 90.7635 9.98113 89.486 10.8314L92.2125 16.3271C93.0082 15.7031 93.9754 15.2141 95.1106 14.8565C96.2457 14.5025 97.3699 14.3237 98.4758 14.3237C101.6 14.3237 103.235 15.5462 103.374 17.9875H98.7715C95.2785 17.9875 92.6943 18.5896 91.0153 19.7975C89.34 21.0054 88.5005 22.7023 88.5005 24.8882C88.5005 26.2493 88.8327 27.4645 89.5006 28.5301C90.1685 29.5957 91.154 30.4423 92.4607 31.0663C93.7674 31.6903 95.315 32.0042 97.1035 32.0042C100.483 32.0042 102.757 30.8838 103.922 28.6396V31.621H111.462V18.7976C111.462 15.1922 110.455 12.5137 108.437 10.7657C106.429 9.02138 103.502 8.14557 99.6694 8.14557ZM73.5466 25.5706C72.1268 25.5706 70.9625 25.0816 70.0536 24.1C69.1448 23.122 68.6922 21.7645 68.6922 20.0311C68.6922 18.3269 69.1448 16.9913 70.0536 16.0279C70.9625 15.0608 72.1268 14.5791 73.5466 14.5791C74.9665 14.5791 76.1235 15.0608 77.0214 16.0279C77.9156 16.9949 78.3646 18.3269 78.3646 20.0311C78.3646 21.7645 77.912 23.122 77.0032 24.1C76.0907 25.0816 74.9409 25.5706 73.5466 25.5706ZM78.2332 0.0114597V10.5358C76.7258 8.94475 74.5978 8.14922 71.8421 8.14922C69.7397 8.14922 67.8235 8.63092 66.0898 9.59796C64.356 10.565 62.9873 11.9481 61.9799 13.7508C60.9689 15.5535 60.4652 17.6481 60.4652 20.0347C60.4652 22.4213 60.9689 24.5233 61.9799 26.3406C62.9873 28.1579 64.3597 29.5555 66.0898 30.5372C67.8199 31.5188 69.7397 32.0078 71.8421 32.0078C74.8533 32.0078 77.109 31.1138 78.6164 29.322V31.621H86.3288V0.0078125L78.2332 0.0114597ZM48.5335 8.14557C47.0553 8.14557 45.6938 8.39372 44.4419 8.89001C43.1899 9.3863 42.1132 10.1052 41.2044 11.0394V8.52509H33.492V31.6173H41.5876V20.4544C41.5876 18.6371 42.0074 17.2759 42.8432 16.3636C43.6827 15.455 44.7959 14.9988 46.1902 14.9988C48.7196 14.9988 49.9825 16.5753 49.9825 19.7282V31.6137H58.0781V18.4072C58.0781 14.9696 57.2058 12.4006 55.4575 10.6964C53.7128 8.99949 51.4024 8.14557 48.5335 8.14557ZM25.4804 1.79958L17.2132 21.228L9.11759 1.79958H0L12.742 31.621H21.053L33.8351 1.79958H25.4804Z" fill="white"/>
</svg>
