<svg width="20" height="20" viewBox="0 0 20 20" fill="none" xmlns="http://www.w3.org/2000/svg">
<path d="M14.7816 13.4539L14.508 13.8026L14.8214 14.1161L19.2929 18.5875L18.5875 19.2929L14.1161 14.8214L13.8026 14.508L13.4539 14.7816C12.0874 15.8536 10.37 16.5 8.5 16.5C4.07614 16.5 0.5 12.9239 0.5 8.5C0.5 4.07614 4.07614 0.5 8.5 0.5C12.9239 0.5 16.5 4.07614 16.5 8.5C16.5 10.37 15.8536 12.0874 14.7816 13.4539ZM1.5 8.5C1.5 12.3636 4.63636 15.5 8.5 15.5C12.3636 15.5 15.5 12.3636 15.5 8.5C15.5 4.63636 12.3636 1.5 8.5 1.5C4.63636 1.5 1.5 4.63636 1.5 8.5Z" fill="#B92C38" stroke="#B92C38"/>
</svg>
