<svg width="34" height="34" viewBox="0 0 34 34" fill="none" xmlns="http://www.w3.org/2000/svg">
<g filter="url(#filter0_d_1997_17145)">
<path d="M33 17.0078C33 8.17125 25.8366 1.00781 17 1.00781C8.16344 1.00781 1 8.17125 1 17.0078C1 24.9937 6.85094 31.6131 14.5 32.8134V21.6328H10.4375V17.0078H14.5V13.4828C14.5 9.47281 16.8888 7.25781 20.5434 7.25781C22.2941 7.25781 24.125 7.57031 24.125 7.57031V11.5078H22.1075C20.12 11.5078 19.5 12.7412 19.5 14.0066V17.0078H23.9375L23.2281 21.6328H19.5V32.8134C27.1491 31.6131 33 24.9937 33 17.0078Z" fill="white"/>
</g>
<defs>
<filter id="filter0_d_1997_17145" x="0" y="0.0078125" width="34" height="33.8057" filterUnits="userSpaceOnUse" color-interpolation-filters="sRGB">
<feFlood flood-opacity="0" result="BackgroundImageFix"/>
<feColorMatrix in="SourceAlpha" type="matrix" values="0 0 0 0 0 0 0 0 0 0 0 0 0 0 0 0 0 0 127 0" result="hardAlpha"/>
<feOffset/>
<feGaussianBlur stdDeviation="0.5"/>
<feColorMatrix type="matrix" values="0 0 0 0 0.752832 0 0 0 0 0.748842 0 0 0 0 0.840611 0 0 0 1 0"/>
<feBlend mode="normal" in2="BackgroundImageFix" result="effect1_dropShadow_1997_17145"/>
<feBlend mode="normal" in="SourceGraphic" in2="effect1_dropShadow_1997_17145" result="shape"/>
</filter>
</defs>
</svg>
