<svg width="33" height="33" viewBox="0 0 33 33" fill="none" xmlns="http://www.w3.org/2000/svg">
<path fill-rule="evenodd" clip-rule="evenodd" d="M32.5 16.0078C32.5 24.8444 25.3366 32.0078 16.5 32.0078C7.66344 32.0078 0.5 24.8444 0.5 16.0078C0.5 7.17126 7.66344 0.0078125 16.5 0.0078125C25.3366 0.0078125 32.5 7.17126 32.5 16.0078ZM16.4996 6.98971C19.4368 6.98971 19.7843 7.00106 20.9444 7.0539C22.0168 7.1028 22.5993 7.28182 22.987 7.43246C23.5005 7.63201 23.8668 7.87041 24.2519 8.25509C24.637 8.6402 24.8754 9.00654 25.0745 9.52003C25.2252 9.90776 25.4042 10.4902 25.4531 11.5626C25.5059 12.7223 25.5173 13.0703 25.5173 16.0076C25.5173 18.9449 25.5059 19.2924 25.4531 20.4526C25.4042 21.525 25.2252 22.1074 25.0745 22.4952C24.875 23.0086 24.6366 23.375 24.2519 23.7601C23.8668 24.1452 23.5005 24.3836 22.987 24.5827C22.5993 24.7334 22.0168 24.9124 20.9444 24.9613C19.7848 25.0141 19.4368 25.0255 16.4996 25.0255C13.5624 25.0255 13.2144 25.0141 12.0547 24.9613C10.9823 24.9124 10.3999 24.7334 10.0121 24.5827C9.49865 24.3832 9.13232 24.1448 8.74721 23.7601C8.3621 23.375 8.1237 23.0086 7.9246 22.4952C7.77396 22.1074 7.59495 21.525 7.54604 20.4526C7.49321 19.2929 7.48186 18.9449 7.48186 16.0076C7.48186 13.0703 7.49321 12.7228 7.54604 11.5626C7.59495 10.4902 7.77396 9.90776 7.9246 9.52003C8.12414 9.00654 8.36254 8.6402 8.74721 8.25509C9.13232 7.86997 9.49865 7.63157 10.0121 7.43246C10.3999 7.28182 10.9823 7.1028 12.0547 7.0539C13.2148 7.00106 13.5624 6.98971 16.4996 6.98971ZM16.4996 5.00781C13.5121 5.00781 13.1375 5.02047 11.9643 5.07418C10.7937 5.12745 9.99422 5.31346 9.29431 5.58548C8.57081 5.86668 7.95735 6.24262 7.34607 6.85435C6.73479 7.46565 6.35841 8.07912 6.07766 8.8022C5.80564 9.50213 5.61964 10.3016 5.56637 11.4722C5.51266 12.6455 5.5 13.0201 5.5 16.0076C5.5 18.9951 5.51266 19.3697 5.56637 20.543C5.61964 21.7136 5.80564 22.5131 6.07766 23.213C6.35885 23.9365 6.73479 24.55 7.34651 25.1613C7.95822 25.773 8.57125 26.1489 9.29474 26.4301C9.99422 26.7022 10.7941 26.8882 11.9647 26.9414C13.138 26.9951 13.5126 27.0078 16.5 27.0078C19.4874 27.0078 19.862 26.9951 21.0353 26.9414C22.2059 26.8882 23.0058 26.7022 23.7053 26.4301C24.4288 26.1489 25.0422 25.773 25.6535 25.1613C26.2652 24.5495 26.6411 23.9365 26.9223 23.213C27.1944 22.5135 27.3804 21.7136 27.4336 20.543C27.4873 19.3697 27.5 18.9951 27.5 16.0076C27.5 13.0201 27.4873 12.6455 27.4336 11.4722C27.3804 10.3016 27.1944 9.50169 26.9223 8.8022C26.6411 8.07869 26.2652 7.46521 25.6535 6.85392C25.0418 6.24219 24.4288 5.86624 23.7053 5.58505C23.0049 5.31346 22.2054 5.12745 21.0348 5.07418C19.8616 5.02047 19.487 5.00781 16.4996 5.00781ZM16.4995 10.3592C13.3798 10.3592 10.8512 12.8882 10.8512 16.0075C10.8512 19.1269 13.3802 21.6559 16.4995 21.6559C19.6188 21.6559 22.1477 19.1269 22.1477 16.0075C22.1477 12.8882 19.6192 10.3592 16.4995 10.3592ZM16.4995 19.674C14.4744 19.674 12.8331 18.0322 12.8331 16.0075C12.8331 13.9824 14.4748 12.3411 16.4995 12.3411C18.5241 12.3411 20.1659 13.9828 20.1659 16.0075C20.1659 18.0327 18.5246 19.674 16.4995 19.674ZM23.6914 10.1357C23.6914 10.8647 23.1005 11.4557 22.3715 11.4557C21.6425 11.4557 21.0515 10.8647 21.0515 10.1357C21.0515 9.40675 21.6425 8.81579 22.3715 8.81579C23.1005 8.81579 23.6914 9.40675 23.6914 10.1357Z" fill="white"/>
</svg>
