<svg width="35" height="35" viewBox="0 0 35 35" fill="none" xmlns="http://www.w3.org/2000/svg">
<g filter="url(#filter0_d_1997_17151)">
<path fill-rule="evenodd" clip-rule="evenodd" d="M1.25 33.0078L3.5105 24.7913C2.11631 22.3865 1.38293 19.6586 1.38369 16.8637C1.38751 8.12087 8.53418 1.00781 17.3172 1.00781C21.5793 1.00933 25.5793 2.66116 28.5877 5.65833C31.5953 8.65551 33.2515 12.6398 33.25 16.8766C33.2462 25.6187 26.098 32.7333 17.3172 32.7333H17.3103C14.6442 32.7325 12.0239 32.0663 9.6969 30.8031L1.25 33.0078ZM12.4392 9.55122C12.7234 9.56263 13.0374 9.57556 13.3353 10.2357C13.5378 10.684 13.8779 11.5181 14.1505 12.1866C14.3542 12.6861 14.5202 13.0932 14.563 13.1781C14.6623 13.3766 14.7288 13.6078 14.5958 13.8724C14.5761 13.9118 14.5578 13.949 14.5403 13.9845C14.4402 14.1877 14.3669 14.3365 14.1978 14.5333C14.1318 14.6101 14.0636 14.6928 13.9954 14.7754C13.8577 14.9423 13.72 15.1091 13.6004 15.2277C13.4003 15.4246 13.1932 15.6399 13.4255 16.0361C13.6577 16.4331 14.4568 17.7305 15.6402 18.7808C16.9121 19.9096 18.0173 20.387 18.5779 20.6291C18.6877 20.6766 18.7767 20.715 18.8418 20.7475C19.2399 20.946 19.4721 20.9125 19.7043 20.6478C19.9366 20.3839 20.6998 19.4911 20.9648 19.0949C21.2307 18.6979 21.4958 18.7641 21.8609 18.8964C22.2261 19.028 24.1833 19.987 24.5813 20.1854C24.6601 20.2247 24.7337 20.2601 24.8019 20.2929C25.0781 20.4257 25.2649 20.5155 25.3445 20.6478C25.4438 20.8136 25.4438 21.6068 25.1123 22.5324C24.78 23.4579 23.1551 24.35 22.4247 24.4162C22.3546 24.4225 22.2848 24.4307 22.2131 24.4391C21.5381 24.5181 20.6868 24.6179 17.647 23.4245C13.9102 21.9574 11.4457 18.3236 10.9332 17.568C10.8907 17.5054 10.8617 17.4625 10.8464 17.4423L10.8413 17.4355C10.6247 17.147 9.22074 15.2772 9.22074 13.3431C9.22074 11.5165 10.123 10.5595 10.5373 10.12C10.5653 10.0903 10.5911 10.063 10.6142 10.0379C10.9793 9.64172 11.411 9.5421 11.6761 9.5421C11.6938 9.5421 11.7115 9.54209 11.7293 9.54209C11.9772 9.54204 12.2225 9.542 12.4392 9.55122Z" fill="white"/>
</g>
<defs>
<filter id="filter0_d_1997_17151" x="0.25" y="0.0078125" width="34" height="34" filterUnits="userSpaceOnUse" color-interpolation-filters="sRGB">
<feFlood flood-opacity="0" result="BackgroundImageFix"/>
<feColorMatrix in="SourceAlpha" type="matrix" values="0 0 0 0 0 0 0 0 0 0 0 0 0 0 0 0 0 0 127 0" result="hardAlpha"/>
<feOffset/>
<feGaussianBlur stdDeviation="0.5"/>
<feColorMatrix type="matrix" values="0 0 0 0 0.752832 0 0 0 0 0.748842 0 0 0 0 0.840611 0 0 0 1 0"/>
<feBlend mode="normal" in2="BackgroundImageFix" result="effect1_dropShadow_1997_17151"/>
<feBlend mode="normal" in="SourceGraphic" in2="effect1_dropShadow_1997_17151" result="shape"/>
</filter>
</defs>
</svg>
