<svg width="33" height="33" viewBox="0 0 33 33" fill="none" xmlns="http://www.w3.org/2000/svg">
<path fill-rule="evenodd" clip-rule="evenodd" d="M32.75 16.0078C32.75 24.8444 25.5866 32.0078 16.75 32.0078C7.91344 32.0078 0.75 24.8444 0.75 16.0078C0.75 7.17126 7.91344 0.0078125 16.75 0.0078125C25.5866 0.0078125 32.75 7.17126 32.75 16.0078ZM24.3161 11.644L24.3144 11.6442C23.1393 11.4173 22.1165 10.7613 21.4177 9.83984L21.4085 9.83293C20.8062 9.03331 20.4411 8.03592 20.4333 6.94531H20.4098H19.6013H19.5973H17.363V15.4336L17.3591 20.082C17.3591 21.3242 16.5427 22.3789 15.4098 22.75C15.0817 22.8594 14.7263 22.9102 14.3552 22.8867C13.4177 22.8359 12.6013 22.332 12.1208 21.5938L12.1174 21.5917C11.8419 21.167 11.6791 20.6648 11.6713 20.1239C11.6479 18.5536 12.9291 17.2723 14.5151 17.2723C14.8276 17.2723 15.1283 17.3231 15.4096 17.413V14.2684C15.1166 14.2254 14.8158 14.202 14.5151 14.202H14.4723V14.1992C12.8942 14.2109 11.4138 14.8242 10.3005 15.9297C9.195 17.0273 8.56219 18.5273 8.5661 20.082C8.5661 21.4648 9.04657 22.7773 9.93328 23.8281C9.9895 23.8714 10.0464 23.915 10.1039 23.9586C10.0464 23.9173 9.98946 23.8749 9.93326 23.8315C10.0505 23.9721 10.1755 24.1088 10.3122 24.2416C11.4372 25.351 12.9294 25.9643 14.5192 25.9643C14.82 25.9643 15.1208 25.9408 15.4137 25.8979C16.6637 25.7143 17.8161 25.1401 18.7262 24.2416C19.8434 23.1362 20.4606 21.6713 20.4684 20.1088L20.4098 13.1596C20.9411 13.5698 21.5231 13.9135 22.152 14.1752C23.1247 14.5854 24.1559 14.7963 25.2145 14.7963V11.7299C24.9059 11.7299 24.609 11.6987 24.3161 11.644ZM14.4721 16.5145L14.4345 16.5028C14.4471 16.5047 14.4596 16.5077 14.4721 16.5116V16.5145Z" fill="white"/>
</svg>
