<svg width="32" height="33" viewBox="0 0 32 33" fill="none" xmlns="http://www.w3.org/2000/svg">
<path fill-rule="evenodd" clip-rule="evenodd" d="M32 16.0078C32 24.8444 24.8366 32.0078 16 32.0078C7.16344 32.0078 0 24.8444 0 16.0078C0 7.17126 7.16344 0.0078125 16 0.0078125C24.8366 0.0078125 32 7.17126 32 16.0078ZM24.0472 13.4725C24.0472 18.5685 20.1672 24.4485 13.0712 24.4485C10.8952 24.4485 8.86322 23.8085 7.17522 22.7045C7.47922 22.7445 7.78322 22.7605 8.09522 22.7605C9.90323 22.7605 11.5672 22.1445 12.8872 21.1125C11.1992 21.0805 9.77523 19.9685 9.28723 18.4325C9.52723 18.4805 9.76723 18.5045 10.0152 18.5045C10.3672 18.5045 10.7112 18.4565 11.0312 18.3685C9.26323 18.0085 7.93522 16.4565 7.93522 14.5845V14.5365C8.45522 14.8245 9.04722 15.0005 9.67923 15.0165C8.63923 14.3285 7.95922 13.1445 7.95922 11.8085C7.95922 11.1045 8.15122 10.4405 8.47923 9.87253C10.3832 12.2085 13.2232 13.7445 16.4312 13.9045C16.3592 13.6245 16.3272 13.3285 16.3272 13.0245C16.3272 10.8965 18.0552 9.16853 20.1832 9.16853C21.2952 9.16853 22.2952 9.63253 22.9992 10.3845C23.8792 10.2085 24.7032 9.88853 25.4472 9.44853C25.1592 10.3525 24.5512 11.1045 23.7512 11.5845C24.5352 11.4885 25.2792 11.2805 25.9672 10.9765C25.4472 11.7525 24.7912 12.4325 24.0392 12.9765C24.0472 13.1365 24.0472 13.3045 24.0472 13.4725Z" fill="white"/>
</svg>
